<svg xmlns="http://www.w3.org/2000/svg" aria-hidden="true" style="width:0;height:0;position:absolute;overflow:hidden"><defs><symbol id="icon-address" viewBox="0 0 27 32"><path fill="#b1040e" d="M14.095 0A12.585 12.585 0 0 0 1.524 12.571c0 10.757 11.429 18.882 11.916 19.222a1.14 1.14 0 0 0 1.312 0c.487-.34 11.916-8.464 11.916-19.222A12.585 12.585 0 0 0 14.097 0zm0 8a4.575 4.575 0 0 1 4.224 2.822 4.566 4.566 0 0 1-.991 4.982 4.57 4.57 0 0 1-7.034-.693 4.567 4.567 0 0 1 .569-5.772A4.572 4.572 0 0 1 14.096 8z" style="fill:var(--color1,#b1040e)"/></symbol><symbol id="icon-call" viewBox="0 0 65 64"><path fill="#424852" d="m61.537 49.281-12.8-7.399a3.154 3.154 0 0 0-4.15.933l-2.57 3.719a1.625 1.625 0 0 1-2.064.523l-2.983-1.51a40.54 40.54 0 0 1-10.348-7.502 40.47 40.47 0 0 1-7.502-10.349l-1.51-2.982a1.626 1.626 0 0 1 .523-2.065l3.719-2.57a3.154 3.154 0 0 0 .932-4.15l-7.399-12.8a3.15 3.15 0 0 0-3.708-1.405 13.52 13.52 0 0 0-7.354 5.933L3.38 9.25a8.236 8.236 0 0 0-.73 6.8A72.89 72.89 0 0 0 20.195 44.47a72.89 72.89 0 0 0 28.423 17.545 8.235 8.235 0 0 0 6.8-.73l1.591-.942a13.52 13.52 0 0 0 5.934-7.354 3.15 3.15 0 0 0-1.406-3.709Zm-16.23-5.969a2.274 2.274 0 0 1 2.993-.672l1.84 1.064a4.703 4.703 0 0 0-4.17 1.21l-1.268-.725.605-.877Zm11.256 16.28-1.591.942a7.365 7.365 0 0 1-6.08.652 72.027 72.027 0 0 1-28.08-17.334A71.997 71.997 0 0 1 3.48 15.774a7.37 7.37 0 0 1 .653-6.08l.942-1.59a12.64 12.64 0 0 1 6.878-5.55 2.27 2.27 0 0 1 2.674 1.014l1.665 2.88a5.732 5.732 0 0 0-4.283-1.273l-.5-.875a.438.438 0 1 0-.76.435l9.003 15.732-2.115 1.462a2.503 2.503 0 0 0-.808 3.18l1.511 2.982a41.412 41.412 0 0 0 7.664 10.571 41.433 41.433 0 0 0 10.571 7.664l2.983 1.511a2.503 2.503 0 0 0 3.18-.807l1.465-2.12 17.064 9.765a12.643 12.643 0 0 1-4.704 4.916Z" style="fill:var(--color2,#424852)"/><path fill="#424852" d="M35.183 50.124a64.983 64.983 0 0 1-1.699-1.072.437.437 0 0 0-.479.732c.563.368 1.143.733 1.723 1.087a.438.438 0 0 0 .455-.747ZM31.562 47.741a61.373 61.373 0 0 1-17.02-18.257.438.438 0 0 0-.747.455 62.225 62.225 0 0 0 17.26 18.516.436.436 0 1 0 .506-.714Z" style="fill:var(--color2,#424852)"/><path fill="#b1040e" d="M56.927 2H37.244a5.74 5.74 0 0 0-5.74 5.74v14.864a5.74 5.74 0 0 0 5.74 5.74c1.004 0 1.819.813 1.819 1.819v3.786c0 .718.87 1.08 1.377.571l5.205-5.205a3.312 3.312 0 0 1 2.342-.97h8.938a5.74 5.74 0 0 0 5.74-5.74V7.74A5.738 5.738 0 0 0 56.927 2Zm-1.015 15.25a.965.965 0 0 1-.965.965h-4.78a.249.249 0 0 0-.248.249v4.779a.965.965 0 0 1-.965.965h-3.74a.965.965 0 0 1-.965-.965v-4.78a.249.249 0 0 0-.249-.25h-4.778a.965.965 0 0 1-.965-.964v-3.74c0-.533.43-.965.965-.965H44a.249.249 0 0 0 .25-.249V7.518c0-.533.43-.965.964-.965h3.74c.533 0 .965.43.965.965v4.778c0 .138.111.249.249.249h4.779c.532 0 .965.431.965.965v3.74Z" style="fill:var(--color1,#b1040e)"/><path fill="#d4e1e8" d="M13.003 11.504 10.49 6.917a1.521 1.521 0 0 0-2.603-.106L5.812 9.964A2.71 2.71 0 0 0 7.4 14.079l3.002.77c1.957.503 3.57-1.573 2.6-3.345ZM54.973 52.53l2.806 1.69a1.744 1.744 0 0 1 .195 2.851l-1.199.968a2.103 2.103 0 0 1-3.267-.844l-1.03-2.53c-.628-1.541 1.07-2.993 2.495-2.135Z" style="fill:var(--color4,#d4e1e8)"/></symbol><symbol id="icon-clock" viewBox="0 0 32 32"><path fill="#b1040e" d="M16 0A15.998 15.998 0 0 0 4.687 27.313a15.994 15.994 0 0 0 24.616-2.425A16.002 16.002 0 0 0 32 15.999a16.019 16.019 0 0 0-16-16zm8.616 17.231h-8.615a1.228 1.228 0 0 1-1.23-1.23V7.386a1.228 1.228 0 0 1 2.1-.87c.231.23.36.544.36.87v7.385h7.385a1.23 1.23 0 1 1 0 2.46z" style="fill:var(--color1,#b1040e)"/></symbol><symbol id="icon-facebook" viewBox="0 0 32 32"><path d="M12.264 28.667h5.333v-10.68h4.805l.528-5.307h-5.333V10a1.334 1.334 0 0 1 1.334-1.334h4V3.333h-4A6.67 6.67 0 0 0 12.264 10v2.68H9.597l-.528 5.307h3.195v10.68z"/></symbol><symbol id="icon-clinic" viewBox="0 0 65 64"><path fill="#B1040E" d="M25.968 62h5.928V50.79a.437.437 0 1 1 .875 0V62h5.927V48.703h-12.73V62ZM53.636 30.477h-2.709a.733.733 0 0 0-.732.733v2.708c0 .405.328.733.732.733h2.709a.732.732 0 0 0 .732-.733V31.21a.732.732 0 0 0-.733-.733ZM53.636 39.59h-2.709a.733.733 0 0 0-.732.732v2.709c0 .404.328.732.732.732h2.709a.732.732 0 0 0 .732-.732v-2.709a.732.732 0 0 0-.733-.732ZM53.636 48.703h-2.709a.733.733 0 0 0-.732.732v2.709c0 .404.328.732.732.732h2.709a.732.732 0 0 0 .732-.732v-2.709a.732.732 0 0 0-.733-.732ZM13.74 30.477h-2.71a.733.733 0 0 0-.732.733v2.708c0 .405.328.733.733.733h2.708a.732.732 0 0 0 .733-.733V31.21a.733.733 0 0 0-.733-.733ZM13.74 39.59h-2.71a.733.733 0 0 0-.732.732v2.709c0 .404.328.732.733.732h2.708a.732.732 0 0 0 .733-.732v-2.709a.733.733 0 0 0-.733-.732ZM13.74 48.703h-2.71a.733.733 0 0 0-.732.732v2.709c0 .404.328.732.733.732h2.708a.732.732 0 0 0 .733-.732v-2.709a.733.733 0 0 0-.733-.732Z" style="fill:var(--color1,#b1040e)"/><path fill="#D4E1E8" d="M37.605 7.21H31.63c-.236 0-.449-.177-.461-.414a.438.438 0 0 1 .437-.46h4.928c.509 0 .902-.447.838-.952l-.073-.574a1.139 1.139 0 0 0-1.124-.995l-7.995-.037a1.139 1.139 0 0 0-1.135 1.282l.323 2.537c.072.567.553.992 1.124.995l7.995.037c.688.003 1.222-.6 1.135-1.282l-.017-.137Z" style="fill:var(--color4,#d4e1e8)"/><path fill="#424852" d="M25.024 27.16c.017 1.916.07 7.742 1.957 9.43a1.935 1.935 0 0 0 1.544.509 1.218 1.218 0 0 0 1.079-1.288c-.137-2.57.666-4.86 1.952-5.57a1.599 1.599 0 0 1 1.554 0c1.286.71 2.09 3 1.953 5.57a1.218 1.218 0 0 0 1.078 1.288c.58.06 1.1-.112 1.544-.51.467-.417 1.888-1.687 1.958-9.428a.716.716 0 0 1 .084-.335c2.147-3.953 1.51-8.18-1.48-9.832-1.163-.643-2.56-.719-3.832-.209-.846.339-1.49.569-2.082.742-.647-.19-1.34-.445-2.081-.742-1.272-.51-2.67-.434-3.833.21-2.99 1.652-3.626 5.878-1.48 9.831.055.1.084.216.085.335Zm1.818-9.4c.933-.515 2.057-.575 3.084-.163 2.026.812 4.347 1.619 6.26.907a.438.438 0 1 0-.306-.82c-.561.209-1.18.261-1.861.194.225-.085.465-.178.721-.28 1.027-.413 2.151-.353 3.084.162 2.557 1.413 3.045 5.131 1.135 8.649a1.595 1.595 0 0 0-.191.744c-.03 3.355-.344 7.602-1.666 8.784a1.067 1.067 0 0 1-.87.291c-.173-.017-.306-.184-.296-.37.157-2.938-.81-5.503-2.403-6.383a2.48 2.48 0 0 0-2.4 0c-1.593.88-2.559 3.445-2.403 6.383.01.186-.122.353-.295.37a1.067 1.067 0 0 1-.87-.291c-1.322-1.182-1.636-5.429-1.666-8.784a1.596 1.596 0 0 0-.191-.744c-1.91-3.518-1.422-7.236 1.134-8.649Z" style="fill:var(--color2,#424852)"/><path fill="#424852" d="M62.333 61.563H45.865V26.285h12.833v33.557a.437.437 0 1 0 .875 0V26.286h.571c.707 0 1.282-.575 1.282-1.281v-1.927c0-.707-.575-1.282-1.282-1.282h-4.378V16.78h1.11a.437.437 0 1 0 0-.875H45.865v-1.185h1.465c.707 0 1.282-.575 1.282-1.282V11.51c0-.706-.575-1.281-1.282-1.281H25.579V2.438h13.51V8.31a.438.438 0 0 0 .875 0V2.437h.734a.438.438 0 0 0 0-.874H23.97a.438.438 0 0 0 0 .875h.733v7.79h-7.367c-.707 0-1.282.576-1.282 1.282v1.927c0 .707.575 1.282 1.282 1.282h1.466v7.077H9.776V16.78h7.137a.437.437 0 1 0 0-.875H7.791a.438.438 0 0 0 0 .875H8.9v5.017H4.522c-.706 0-1.281.575-1.281 1.282v1.927c0 .706.575 1.281 1.281 1.281h.571v35.276h-2.76a.438.438 0 0 0 0 .876h60a.438.438 0 0 0 0-.876ZM45.865 16.779h9.026v5.017h-9.026V16.78Zm0 5.892h3.992a3.593 3.593 0 0 0-1.695 2.014.874.874 0 0 0 .075.726h-2.372v-2.74Zm-41.343 2.74a.407.407 0 0 1-.406-.406v-1.927c0-.224.182-.407.406-.407H8.64a3.504 3.504 0 0 0-1.642 1.975.908.908 0 0 0 .091.765H4.522Zm14.28 36.151H5.968V26.286h12.834v35.276Zm-1.466-47.718a.407.407 0 0 1-.407-.407V11.51c0-.224.183-.406.407-.406h6.045a4.416 4.416 0 0 0-2.035 1.992.808.808 0 0 0 .008.748h-4.018ZM44.99 25.847v35.716H19.677V14.718H44.99v11.128Z" style="fill:var(--color2,#424852)"/><path fill="#424852" d="M39.36 44.996H25.307c-.635 0-1.152.517-1.152 1.152v1.84c0 .636.517 1.152 1.152 1.152H39.36c.635 0 1.151-.516 1.151-1.151v-1.841c0-.635-.516-1.152-1.151-1.152Zm.277 2.992a.277.277 0 0 1-.276.277H25.306a.277.277 0 0 1-.277-.276v-1.841c0-.153.124-.277.277-.277H39.36c.152 0 .276.124.276.277v1.84ZM52.013 18.6h-3.27a.437.437 0 1 0 0 .875h3.27a.437.437 0 1 0 0-.875ZM12.654 18.6a.438.438 0 0 0 0 .875h3.27a.438.438 0 0 0 0-.875h-3.27ZM28.985 5.464a.438.438 0 0 0 0 .875h6.49a.437.437 0 1 0 0-.875h-6.49ZM37.686 39.282a.437.437 0 0 0-.437-.438h-9.831a.438.438 0 0 0 0 .875h9.83a.437.437 0 0 0 .438-.437ZM28.697 41.92a.438.438 0 0 0 0 .875h7.273a.437.437 0 1 0 0-.875h-7.273Z" style="fill:var(--color2,#424852)"/></symbol><symbol id="icon-instagram" viewBox="0 0 32 32"><path d="M16.001 12a4.003 4.003 0 0 0-4 4 4.003 4.003 0 0 0 4 4 4.003 4.003 0 0 0 4-4 4.003 4.003 0 0 0-4-4zm0-2.667a6.67 6.67 0 0 1 4.714 11.381 6.668 6.668 0 1 1-4.714-11.381zM24.668 9a1.667 1.667 0 1 1-3.334 0 1.667 1.667 0 0 1 3.334 0zm-8.667-3.667c-3.299 0-3.837.009-5.372.077-1.045.049-1.747.189-2.397.443-.545.2-1.037.52-1.44.937a3.86 3.86 0 0 0-.939 1.44c-.253.653-.393 1.353-.441 2.397-.069 1.472-.079 1.987-.079 5.372 0 3.3.009 3.837.077 5.372.049 1.044.189 1.747.441 2.396.227.58.493.997.936 1.44.449.448.867.716 1.44.937.659.255 1.36.396 2.4.444 1.472.069 1.987.077 5.372.077 3.3 0 3.837-.009 5.372-.077 1.043-.049 1.744-.189 2.396-.441a3.883 3.883 0 0 0 1.44-.937c.449-.448.717-.865.939-1.44.253-.656.395-1.357.443-2.4.069-1.471.077-1.987.077-5.371 0-3.299-.009-3.837-.077-5.372-.049-1.043-.191-1.747-.443-2.397a3.883 3.883 0 0 0-.937-1.44 3.847 3.847 0 0 0-1.44-.939c-.653-.253-1.355-.393-2.397-.441-1.471-.069-1.985-.077-5.372-.077zM16 2.667c3.623 0 4.075.013 5.497.08 1.419.067 2.387.289 3.236.62a6.51 6.51 0 0 1 2.363 1.537 6.538 6.538 0 0 1 1.537 2.363c.329.849.553 1.817.62 3.237.063 1.421.08 1.873.08 5.496s-.013 4.075-.08 5.496c-.067 1.42-.291 2.387-.62 3.237a6.53 6.53 0 0 1-1.537 2.363 6.55 6.55 0 0 1-2.363 1.537c-.849.329-1.817.553-3.236.62-1.423.063-1.875.08-5.497.08s-4.075-.013-5.497-.08c-1.419-.067-2.385-.291-3.236-.62a6.53 6.53 0 0 1-2.363-1.537 6.53 6.53 0 0 1-1.537-2.363c-.331-.849-.553-1.817-.62-3.237-.064-1.421-.08-1.873-.08-5.496s.013-4.075.08-5.496c.067-1.42.289-2.387.62-3.237a6.516 6.516 0 0 1 1.537-2.363 6.53 6.53 0 0 1 2.363-1.537c.849-.331 1.816-.553 3.236-.62 1.424-.063 1.876-.08 5.499-.08z"/></symbol><symbol id="icon-like" viewBox="0 0 33 32"><path fill="#424852" d="M23.551 18.39c.374-.238.64-.634.698-1.1a.22.22 0 0 0-.435-.053 1.088 1.088 0 0 1-1.079.953.219.219 0 1 0 0 .438h.082c.554 0 1.004.451 1.004 1.004v.968c0 .554-.451 1.004-1.004 1.004h-.874a.219.219 0 1 0 0 .438h.456c.554 0 1.004.451 1.004 1.004v.968c0 .554-.451 1.004-1.004 1.004h-.456a.219.219 0 1 0 0 .438c.551 0 1.002.449 1.004 1l.004.968a1.002 1.002 0 0 1-1.005 1.009H11.664a4.235 4.235 0 0 1-2.069-.542l-1.364-.767a.22.22 0 0 0-.215.381l1.364.767a4.67 4.67 0 0 0 2.283.598h10.282c.386 0 .749-.151 1.022-.424s.422-.637.42-1.024l-.004-.968a1.44 1.44 0 0 0-.499-1.083c.556-.2.955-.733.955-1.358v-.968c0-.44-.198-.834-.51-1.099.542-.207.928-.733.928-1.347v-.968a1.44 1.44 0 0 0-.708-1.241zM8.132 16.92a5.277 5.277 0 0 0 1.573-1.641l2.234-3.683a4.22 4.22 0 0 0 .614-2.198l-.001-2.136c0-.238.049-.469.146-.686a.857.857 0 0 1 1.089-.453l.078.029a2.402 2.402 0 0 1 1.469 1.646l.014.054a11.06 11.06 0 0 1 .174 4.697l-.306 1.72a.8.8 0 0 0 .788.942h2.816a.219.219 0 1 0 0-.438h-2.816a.364.364 0 0 1-.358-.428l.307-1.721c.29-1.633.229-3.275-.181-4.882l-.014-.054a2.836 2.836 0 0 0-1.737-1.947l-.078-.029a1.296 1.296 0 0 0-1.645.684 2.108 2.108 0 0 0-.183.864l.001 2.136c0 .695-.191 1.377-.551 1.971L9.331 15.05a4.838 4.838 0 0 1-1.442 1.504l-.608.406a1.009 1.009 0 0 0-.997-.868H2.04c-.556 0-1.008.452-1.008 1.008v9.856c0 .556.452 1.008 1.008 1.008h4.245c.556 0 1.008-.452 1.008-1.008V17.48l.841-.56zm-6.093-.389h4.245c.314 0 .57.256.57.57v.868H4.81c-1.534 0-2.841.97-3.342 2.329v-3.197a.572.572 0 0 1 .571-.57zm1.195 8.922a.927.927 0 1 1 1.854 0 .927.927 0 0 1-1.854 0z" style="fill:var(--color2,#424852)"/><path fill="#b1040e" d="M24.223 2.45a7.027 7.027 0 1 0 0 14.054 7.027 7.027 0 0 0 0-14.054zm3.553 7.729-.433.366a16.987 16.987 0 0 0-2.837 3.074.349.349 0 0 1-.567 0 17.059 17.059 0 0 0-2.837-3.074l-.433-.366a2.204 2.204 0 1 1 2.982-3.241l.571.571.571-.571a2.204 2.204 0 0 1 3.117 0 2.203 2.203 0 0 1-.134 3.241z" style="fill:var(--color1,#b1040e)"/><path fill="#d4e1e8" d="m9.64 26.353.572.343a3.414 3.414 0 0 0 1.758.487h5.433a.704.704 0 0 0 .704-.704v-.395c0-.971-.676-1.811-1.624-2.019l-6.472-1.42a1.143 1.143 0 0 0-1.388 1.116v.794c0 .738.386 1.42 1.018 1.798z" style="fill:var(--color4,#d4e1e8)"/></symbol><symbol id="icon-linkedin" viewBox="0 0 32 32"><path d="M9.253 6.667a2.667 2.667 0 1 1-5.334-.003 2.667 2.667 0 0 1 5.334.003zm.08 4.64H4V28h5.333V11.307zm8.427 0h-5.307V28h5.253v-8.76c0-4.88 6.36-5.333 6.36 0V28h5.267V17.427c0-8.227-9.413-7.92-11.627-3.88l.053-2.24z"/></symbol><symbol id="icon-mail" viewBox="0 0 64 64"><path fill="#B1040E" d="M50.045 12.987c-6.602 0-11.955 5.353-11.955 11.955 0 6.603 5.352 11.955 11.955 11.955C56.647 36.897 62 31.545 62 24.942c0-6.602-5.352-11.955-11.955-11.955Zm1.932 18.18a1.955 1.955 0 0 1-3.864 0 .26.26 0 0 1 .255-.303h3.354c.16 0 .28.143.255.302Zm4.168-1.888c0 .34-.275.615-.615.615H44.56a.615.615 0 0 1-.615-.615v-.474c0-.41.134-.808.381-1.134l.541-.714c.414-.545.66-1.198.71-1.88l.173-2.433a4.305 4.305 0 0 1 3.346-3.893c-.001-.035-.003-.07-.003-.106 0-.873.426-1.58.95-1.58.526 0 .952.707.952 1.58 0 .036-.001.071-.004.106a4.305 4.305 0 0 1 3.346 3.893l.174 2.432c.049.683.295 1.336.709 1.881l.541.714c.248.326.381.725.381 1.134v.474h.003Z" style="fill:var(--color1,#b1040e)"/><path fill="#D4E1E8" d="m32.625 28.141-1.536-9.502a5.982 5.982 0 0 0-5.905-5.028h-1.309a3.46 3.46 0 0 0-3.433 3.03h4.995a.438.438 0 0 1 0 .875h-5.022v5.97h7.073a.438.438 0 0 1 0 .874h-7.073v4.411a3.378 3.378 0 0 0 3.379 3.38h5.417a3.457 3.457 0 0 0 3.414-4.01Z" style="fill:var(--color4,#d4e1e8)"/><path fill="#424852" d="M25.529 43.231a.433.433 0 0 1-.275-.097l-23.239-18.8a.437.437 0 1 1 .55-.68l23.239 18.8c.187.153.199.388.046.576-.086.106-.194.201-.321.201ZM32.682 43.231c-.127 0-.13-.134-.217-.24-.153-.187-.246-.385-.058-.537l8.57-6.934a.438.438 0 0 1 .55.68l-8.57 6.934a.433.433 0 0 1-.275.097Z" style="fill:var(--color2,#424852)"/><path fill="#424852" d="M53.411 62.267H4.8a3.241 3.241 0 0 1-3.237-3.238V25.355c0-1.147.51-2.22 1.403-2.941l7.464-6.039a.438.438 0 0 1 .55.68l-7.464 6.039a2.894 2.894 0 0 0-1.079 2.261V59.03A2.365 2.365 0 0 0 4.8 61.391h48.611a2.365 2.365 0 0 0 2.363-2.362V36.898a.438.438 0 0 1 .875 0V59.03a3.24 3.24 0 0 1-3.238 3.236ZM37.795 9.298a.433.433 0 0 1-.275-.098l-7.94-6.424a.76.76 0 0 0-.95 0L20.69 9.2a.438.438 0 0 1-.55-.68l7.94-6.424a1.64 1.64 0 0 1 2.05 0l7.94 6.424a.437.437 0 0 1-.275.778Z" style="fill:var(--color2,#424852)"/><path fill="#424852" d="m23.669 8.86 2.764-2.236a6.835 6.835 0 0 1 8.598 0l2.764 2.236H23.669ZM7.336 28.156l3.369 2.645-.139-10.97-3.271 2.647a3.63 3.63 0 0 0 .041 5.678ZM55.301 61.531a.433.433 0 0 1-.275-.097l-25.104-20.31a1.306 1.306 0 0 0-1.633 0L5.347 59.684a.438.438 0 0 1-.55-.68l22.94-18.56a2.185 2.185 0 0 1 2.736 0l25.105 20.31a.437.437 0 0 1-.277.777Z" style="fill:var(--color2,#424852)"/><path fill="#424852" d="M10.705 31.239a.438.438 0 0 1-.438-.438V10.612c0-1.207.983-2.19 2.19-2.19h33.296c1.207 0 2.19.983 2.19 2.19v.823a.438.438 0 0 1-.875 0v-.823c0-.725-.59-1.315-1.316-1.315H12.457c-.725 0-1.315.59-1.315 1.315v20.19a.437.437 0 0 1-.437.437Z" style="fill:var(--color2,#424852)"/><path fill="#424852" d="M38.715 16.658H18.254a.438.438 0 0 1 0-.875h20.461a.438.438 0 0 1 0 .875ZM36.163 23.495h-17.91a.438.438 0 0 1 0-.875h17.91a.438.438 0 0 1 0 .875ZM36.549 30.331H18.254a.438.438 0 0 1 0-.875H36.55a.438.438 0 1 1-.001.875Z" style="fill:var(--color2,#424852)"/></symbol><symbol id="icon-phone" viewBox="0 0 32 32"><path fill="#b1040e" d="M31.981 24.173a9.004 9.004 0 0 1-8.94 7.828c-12.704 0-23.04-10.336-23.04-23.04A9 9 0 0 1 7.829.02a2.559 2.559 0 0 1 2.659 1.523l3.379 7.544v.019a2.555 2.555 0 0 1-.294 2.538l-3.331 3.949c1.198 2.435 3.746 4.96 6.213 6.162l3.894-3.314a1.34 1.34 0 0 1 .12-.09 2.558 2.558 0 0 1 2.427-.224l.021.01 7.538 3.378a2.568 2.568 0 0 1 1.528 2.66zM20.48 12.8h6.4a1.28 1.28 0 0 0 0-2.56h-3.309l5.494-5.494a1.281 1.281 0 0 0-1.812-1.812L21.758 8.43V5.12a1.28 1.28 0 1 0-2.56 0v6.4a1.28 1.28 0 0 0 1.28 1.28z" style="fill:var(--color1,#b1040e)"/></symbol><symbol id="icon-technology" viewBox="0 0 33 32"><path fill="#d4e1e8" d="M7.379 27.893c-.148.244-.321.508-.524.694-.204.187-.448-.04-.663-.322a.279.279 0 0 0-.501.168v1.963c0 .333.27.604.604.604h.958c.334 0 .604-.27.604-.604v-2.37c0-.261-.343-.356-.478-.133zm19.619 0c-.148.244-.321.508-.524.694s-.448-.04-.663-.322a.279.279 0 0 0-.501.168v1.963c0 .333.27.604.604.604h.957c.334 0 .604-.27.604-.604v-2.37c0-.261-.343-.356-.478-.133z" style="fill:var(--color4,#d4e1e8)"/><path fill="#b1040e" d="M17.47 1.363c.154-.149.014-.407-.195-.355a5.354 5.354 0 0 0-2.861 1.757 3.589 3.589 0 0 0-.731 3.247l.63 2.377c.039.146.17.247.321.247h2.629c.2 0 .319-.221.211-.389l-2.121-3.255a1.179 1.179 0 0 1 .036-1.344c.549-.739 1.271-1.504 2.082-2.284zM26.393 1c-1.006 0-2.818 4.545-2.818 6.101s1.261 1.534 2.818 1.534c1.556 0 2.817.022 2.817-1.534S27.398 1 26.393 1zM6.773 1a3.817 3.817 0 1 0 0 7.634 3.817 3.817 0 0 0 0-7.634zm0 5.68a1.863 1.863 0 1 1 0-3.726 1.863 1.863 0 0 1 0 3.726z" style="fill:var(--color1,#b1040e)"/><path fill="#424852" d="m17.845 13.989-.46-.154V9.377a.219.219 0 1 0-.438 0v4.311l-.408-.137a1.437 1.437 0 0 0-.912 0l-.408.137V9.377a.219.219 0 1 0-.438 0v4.458l-.46.154a1.43 1.43 0 0 0-.976 1.357v7.598c0 .789.642 1.431 1.431 1.431h.004v6.021c0 .454.369.823.823.823h.957a.824.824 0 0 0 .823-.823v-5.114a.219.219 0 1 0-.438 0v5.114a.386.386 0 0 1-.385.385h-.957a.385.385 0 0 1-.385-.385v-6.021h2.17c.789 0 1.431-.642 1.431-1.431v-7.598a1.43 1.43 0 0 0-.976-1.357zm-3.384.415 1.305-.439a1.002 1.002 0 0 1 .634 0l1.305.439a.995.995 0 0 1 .608.578l-4.53 2.342v-1.978c0-.427.272-.806.677-.942zm-.677 3.412 1.874-.969a4.305 4.305 0 0 0-1.104 1.957l-.009.034a.461.461 0 0 0 .221.514l-.982.508v-2.045zm3.605 6.122h-2.611a.995.995 0 0 1-.994-.994v-2.59l4.599-2.378v2.045l-3.761 1.944a.218.218 0 1 0 .2.389l3.56-1.84v2.43a.995.995 0 0 1-.994.994zm-7.914-8.905a1.427 1.427 0 0 0-.94-1.044l-.46-.155V9.241a.219.219 0 1 0-.438 0v4.446l-.408-.137a1.437 1.437 0 0 0-.912 0l-.408.137V9.24a.219.219 0 1 0-.438 0v4.594l-.46.154a1.43 1.43 0 0 0-.976 1.357v7.598c0 .789.642 1.431 1.431 1.431h.004v6.021c0 .454.369.823.823.823h.957a.824.824 0 0 0 .823-.823v-6.021h.004c.789 0 1.431-.642 1.431-1.431v-7.598c0-.104-.012-.207-.034-.306l-.001-.007zm-.402 2.45-4.599 2.378v-2.045l4.599-2.378v2.045zm-4.599 2.871 1.929-.997a4.294 4.294 0 0 0-1.133 1.986l-.009.034a.46.46 0 0 0 .209.506l-.997.516v-2.045zm.677-5.95 1.305-.439a1.002 1.002 0 0 1 .634 0l1.305.439a.994.994 0 0 1 .608.579l-4.53 2.342v-1.978c0-.427.272-.806.677-.942zm2.486 15.992a.386.386 0 0 1-.385.385h-.957a.385.385 0 0 1-.385-.385v-6.021h1.728v6.021zm.442-6.458H5.468a.995.995 0 0 1-.994-.994v-.053l4.599-2.378v2.43a.995.995 0 0 1-.994.994zm20.075-9.949-.46-.154V9.377a.219.219 0 1 0-.438 0v4.311l-.408-.137a1.437 1.437 0 0 0-.912 0l-.408.137V9.377a.219.219 0 1 0-.438 0v4.457l-.46.155a1.43 1.43 0 0 0-.976 1.357v7.598c0 .789.642 1.431 1.431 1.431h.004v6.021c0 .454.369.823.823.823h.957a.824.824 0 0 0 .823-.823v-6.021h.004c.789 0 1.431-.642 1.431-1.431v-7.598a1.43 1.43 0 0 0-.976-1.357zm.538 3.494-4.599 2.378v-2.045l4.599-2.377v2.045zm-4.599 2.871 1.874-.969a4.305 4.305 0 0 0-1.104 1.957l-.009.034a.461.461 0 0 0 .221.514l-.982.508v-2.045zm.678-5.95 1.305-.439a1.002 1.002 0 0 1 .634 0l1.305.439a.994.994 0 0 1 .608.579l-4.53 2.342v-1.978c0-.427.272-.806.677-.942zm2.486 15.992a.386.386 0 0 1-.385.385h-.957a.386.386 0 0 1-.385-.385v-6.021h1.728v6.021zm.441-6.458h-2.611a.995.995 0 0 1-.994-.994v-.053l4.599-2.378v2.43a.995.995 0 0 1-.994.994z" style="fill:var(--color2,#424852)"/></symbol><symbol id="icon-tooth" viewBox="0 0 65 64"><path fill="#424852" d="m62.95 54.116-9.034-9.033a1.039 1.039 0 0 0-1.118-.236l-2.626-2.625 1.203-1.202c.38-.38.51-.954.332-1.463a.438.438 0 0 0-.825.29.532.532 0 0 1-.126.553l-5.323 5.322a.538.538 0 0 1-.552.127l-1.394-.49a15.516 15.516 0 0 0 4.006-2.899 15.493 15.493 0 0 0 4.568-11.027c0-4.166-1.623-8.082-4.568-11.028a15.476 15.476 0 0 0-9.188-4.46l.413-1.845a9.961 9.961 0 0 0-1.1-7.224c-2.292-3.928-6.78-5.813-11.172-4.693l-.806.206a20.115 20.115 0 0 1-9.902 0l-.806-.206a9.965 9.965 0 0 0-9.471 2.523 9.963 9.963 0 0 0-2.8 9.394l1.946 8.675c.598 2.665.901 5.4.901 8.131v13.92a38.416 38.416 0 0 0 3.437 15.935 2.29 2.29 0 0 0 2.11 1.377c.107 0 .215-.008.323-.022a2.296 2.296 0 0 0 2.004-1.935l3.411-20.483a6.903 6.903 0 0 1 2.498-4.26 2.235 2.235 0 0 1 1.994-.418 15.493 15.493 0 0 0 4.153 7.44 15.52 15.52 0 0 0 9.497 4.485 37.619 37.619 0 0 1-3.297 13.456c-.33.729-1.002.916-1.523.849-.52-.068-1.123-.422-1.255-1.211l-2.597-15.59a.438.438 0 0 0-.863.144l2.596 15.59A2.297 2.297 0 0 0 30 62.116a2.29 2.29 0 0 0 2.434-1.355 38.499 38.499 0 0 0 3.372-13.756 15.649 15.649 0 0 0 6.528-1.125l2.254.794a1.412 1.412 0 0 0 1.463-.332l1.202-1.203 2.627 2.626a1.05 1.05 0 0 0 .235 1.118l9.033 9.033c.198.198.46.307.74.307.28 0 .543-.109.74-.306l2.32-2.32a1.049 1.049 0 0 0 .002-1.482ZM18.736 34.763a7.779 7.779 0 0 0-2.805 4.79L12.52 60.04c-.132.79-.734 1.143-1.255 1.211-.52.068-1.194-.119-1.524-.849a37.544 37.544 0 0 1-3.359-15.575v-13.92c0-2.795-.31-5.596-.922-8.322l-1.947-8.675A9.097 9.097 0 0 1 6.07 5.334a9.098 9.098 0 0 1 8.646-2.304l.792.203.444.145a8.465 8.465 0 0 1 5.595 6.117.437.437 0 1 0 .854-.196 9.342 9.342 0 0 0-3.713-5.513c2.398.229 4.833.047 7.168-.55l.806-.206c4.008-1.024 8.106.7 10.199 4.286a9.084 9.084 0 0 1 1.002 6.593l-.44 1.958a15.498 15.498 0 0 0-11.987 4.538 15.493 15.493 0 0 0-4.568 11.027c0 .902.077 1.79.225 2.66a3.113 3.113 0 0 0-2.357.67Zm7.322 7.078a14.625 14.625 0 0 1-4.31-10.409c0-3.932 1.53-7.628 4.31-10.408a14.623 14.623 0 0 1 10.41-4.312c3.932 0 7.628 1.532 10.408 4.312a14.623 14.623 0 0 1 4.311 10.409c0 3.93-1.531 7.628-4.311 10.408-5.74 5.739-15.079 5.739-20.818 0Zm23.495.999 2.563 2.563-1.68 1.68-2.563-2.563 1.68-1.68Zm12.778 12.137-2.32 2.32a.17.17 0 0 1-.121.05.17.17 0 0 1-.122-.05l-2.52-2.52a4.5 4.5 0 0 0 4.358-.767l.725.725a.173.173 0 0 1 0 .242Z" style="fill:var(--color2,#424852)"/><path fill="#B1040E" d="M36.466 18.125c-7.35 0-13.309 5.959-13.309 13.309s5.959 13.308 13.309 13.308 13.309-5.958 13.309-13.308c0-7.352-5.96-13.309-13.31-13.309Zm8.467 15.101a.924.924 0 0 1-.925.925h-4.583a.239.239 0 0 0-.24.239v4.584a.925.925 0 0 1-.924.925h-3.588a.925.925 0 0 1-.925-.925V34.39a.239.239 0 0 0-.238-.239h-4.584a.925.925 0 0 1-.925-.925V29.64c0-.511.414-.925.925-.925h4.584a.239.239 0 0 0 .238-.239v-4.584c0-.511.414-.925.925-.925h3.588c.511 0 .925.414.925.925v4.584c0 .133.107.239.239.239h4.583c.512 0 .925.414.925.925v3.587Z" style="fill:var(--color1,#b1040e)"/><path fill="#D4E1E8" d="M14.706 5.537a4.687 4.687 0 0 0-5.629.124 9.27 9.27 0 0 0-3.307 9.355l1.015 4.44c.732 3.207 5.07 3.748 6.568.819l3.343-6.536a6.472 6.472 0 0 0-1.99-8.202Z" style="fill:var(--color4,#d4e1e8)"/></symbol><symbol id="icon-twitter" viewBox="0 0 32 32"><path d="M10.914 26.667c9.908 0 15.328-8.21 15.328-15.317.002-.231-.001-.462-.01-.692a10.99 10.99 0 0 0 2.69-2.793c-.986.434-2.031.72-3.1.85a5.412 5.412 0 0 0 2.374-2.982 10.669 10.669 0 0 1-3.425 1.301 5.388 5.388 0 0 0-6.475-1.064 5.394 5.394 0 0 0-2.708 5.977A15.303 15.303 0 0 1 4.483 6.321a5.397 5.397 0 0 0 1.67 7.19 5.423 5.423 0 0 1-2.438-.669v.074a5.397 5.397 0 0 0 4.319 5.281c-.462.127-.94.191-1.419.189a4.945 4.945 0 0 1-1.008-.093 5.388 5.388 0 0 0 5.032 3.736 10.835 10.835 0 0 1-6.695 2.309 9.782 9.782 0 0 1-1.28-.074 15.33 15.33 0 0 0 8.247 2.404z"/></symbol><symbol id="icon-logo" viewBox="0 0 28 32"><path fill="#2e333e" d="M27.533 6.569C24.37 8.865 20.141 11.365 15.3 13.69c-4.519 2.18-8.909 3.895-12.621 4.999l-.387-1.046C1.13 14.62.549 12.005.258 10.115-.032 8.081 0 6.889 0 6.889 0 3.082 3.421.001 7.65.001c2.518 0 4.745 1.104 6.133 2.79 1.388-1.686 3.615-2.79 6.133-2.79.484 0 .968.029 1.42.116h.032c2.195.378 3.002 2.819 1.42 4.272-3.196 2.936-8.166 6.51-15.848 10.347.29-.116 11.523-4.069 18.689-8.952.775-.523 1.872-.087 1.904.785z" style="fill:var(--color5,#2e333e)"/><path fill="#b1040e" d="M27.759 8.08v.145c0 .814-.097 4.97-2.292 10.609-.742 1.889-1.259 3.837-1.678 5.784-.355 1.744-1.033 4.098-2.421 6.278-1.259 2.005-4.68 1.017-4.454-1.279l.484-4.534a2.912 2.912 0 0 0-.355-1.715c-.646-1.134-1.84-1.686-3.066-1.686s-2.421.552-3.066 1.686c-.258.436-.387.93-.387 1.424v.291l.484 4.534c.226 2.296-3.196 3.284-4.454 1.279-1.001-1.599-1.84-4.272-2.227-5.639-.129-.494.129-.988.678-1.192 10.297-3.72 18.528-10.899 18.786-11.132-6.907 4.04-13.202 6.714-17.656 8.342-1.323.494-2.808-.145-3.228-1.366v-.029c3.712-1.104 8.102-2.819 12.621-4.999 4.842-2.325 9.07-4.825 12.233-7.121v.32z" style="fill:var(--color1,#b1040e)"/></symbol><symbol id="icon-vector" viewBox="0 0 32 32"><path fill="#b1040e" d="M32 1.373V25.17a1.376 1.376 0 0 1-1.373 1.373 1.376 1.376 0 0 1-1.373-1.373V4.686L2.309 31.631A1.375 1.375 0 0 1 0 30.65c-.006-.356.126-.7.368-.96L27.313 2.745H6.829a1.376 1.376 0 0 1-1.373-1.373A1.376 1.376 0 0 1 6.829-.001h23.797a1.376 1.376 0 0 1 1.373 1.373z" style="fill:var(--color1,#b1040e)"/></symbol><symbol id="icon-youtube" viewBox="0 0 32 32"><path d="M16 5.333c1.14 0 2.309.029 3.443.077l1.339.064 1.281.076 1.2.081 1.096.085a5.065 5.065 0 0 1 4.659 4.564l.053.567.1 1.213c.093 1.257.163 2.628.163 3.939s-.069 2.681-.163 3.939l-.1 1.213a53.52 53.52 0 0 1-.053.567 5.066 5.066 0 0 1-4.66 4.564l-1.093.084-1.2.083-1.283.076-1.339.064c-1.147.05-2.295.076-3.443.077a82.354 82.354 0 0 1-3.443-.077l-1.339-.064-1.281-.076-1.2-.083-1.096-.084a5.065 5.065 0 0 1-4.659-4.564l-.053-.567-.1-1.213a54.504 54.504 0 0 1-.163-3.939c0-1.311.069-2.681.163-3.939l.1-1.213c.017-.195.035-.383.053-.567a5.071 5.071 0 0 1 4.657-4.564l1.095-.085 1.2-.081 1.283-.076 1.339-.064A80.72 80.72 0 0 1 16 5.333zm-2.667 7.434v6.467a.8.8 0 0 0 1.2.693l5.6-3.233a.792.792 0 0 0 .4-.693.799.799 0 0 0-.4-.693l-5.6-3.232a.804.804 0 0 0-.8 0 .792.792 0 0 0-.4.693v-.001z"/></symbol><symbol id="icon-curve" viewBox="0 0 175 111"><path d="M171.438 107.512c-26.607-2.62-56.213-11.787-72.258-34.565-4.064-5.769-6.558-12.74-7.412-19.932m0 0c-1.302-10.954 1.199-22.423 7.743-30.947C109.751 8.733 125.81-.49 142.626 5.904c8.766 3.332 14.95 10.037 13.267 19.791-2.571 14.902-21.966 24.415-35.437 26.535-9.313 1.466-18.989 1.692-28.688.786Zm0 0C57.686 49.833 23.314 32.675 3.374 6.24" stroke="#B1040E" stroke-width="6" stroke-linecap="round"/></symbol><symbol id="icon-close" viewBox="0 0 32 32"><path d="M32 3.223 28.777 0 16 12.777 3.223 0 0 3.223 12.777 16 0 28.777 3.223 32 16 19.223 28.777 32 32 28.777 19.223 16 32 3.223z"/></symbol><symbol id="icon-menu" viewBox="0 0 24 16"><path d="M0 2.667V0h24v2.667H0Zm0 6.666h24V6.667H0v2.666ZM0 16h24v-2.667H0V16Z" fill="#212121"/></symbol></defs></svg>