<svg xmlns="http://www.w3.org/2000/svg" aria-hidden="true" style="position:absolute;width:0;height:0;overflow:hidden">
  <defs>
    <symbol id="icon-address" viewBox="0 0 27 32">
      <path fill="#b1040e" d="M14.095 0C10.762.004 7.567 1.329 5.21 3.686s-3.683 5.552-3.686 8.885c0 10.757 11.429 18.882 11.916 19.222.192.135.421.207.656.207s.464-.072.656-.207c.487-.34 11.916-8.464 11.916-19.222-.004-3.333-1.329-6.528-3.686-8.885S17.43.003 14.097 0zm0 8c.904 0 1.788.268 2.54.77s1.338 1.216 1.684 2.052c.346.835.437 1.755.26 2.641s-.612 1.701-1.251 2.341c-.639.639-1.454 1.075-2.341 1.251s-1.806.086-2.641-.26-1.549-.932-2.052-1.684-.77-1.636-.77-2.54c0-1.212.482-2.375 1.339-3.232S12.883 8 14.096 8z" style="fill:var(--color1, #b1040e)"/>
    </symbol>
    <symbol id="icon-call" viewBox="0 0 65 64">
  <path fill="#424852" d="M61.5367 49.2812L48.7379 41.8824C47.3329 41.0699 45.5092 41.4799 44.5867 42.8149L42.0179 46.5336C41.5604 47.1961 40.6729 47.4224 39.9529 47.0574L36.9704 45.5462C33.1404 43.6049 29.6592 41.0812 26.6217 38.0449C23.5842 35.0086 21.0617 31.5274 19.1204 27.6962L17.6092 24.7137C17.2442 23.9949 17.4704 23.1074 18.1329 22.6487L21.8517 20.0799C23.1867 19.1574 23.5967 17.3337 22.7842 15.9287L15.3854 3.1299C14.6429 1.84615 13.0842 1.2549 11.6767 1.72365C8.59169 2.7524 5.98044 4.8599 4.32294 7.6574L3.38044 9.24865C2.16294 11.3037 1.89669 13.7824 2.65044 16.0487C6.18919 26.7037 12.2567 36.5324 20.1954 44.4711C28.1342 52.4099 37.9629 58.4774 48.6179 62.0162C49.4654 62.2974 50.3429 62.4374 51.2167 62.4374C52.6792 62.4374 54.1317 62.0487 55.4179 61.2862L57.0092 60.3437C59.8067 58.6861 61.9142 56.0749 62.9429 52.9899C63.4117 51.5837 62.8204 50.0237 61.5367 49.2812ZM45.3067 43.3124C45.9717 42.3499 47.2867 42.0536 48.3004 42.6399L50.1404 43.7037C48.6604 43.4074 47.0954 43.8374 45.9692 44.9137L44.7017 44.1887L45.3067 43.3124ZM56.5629 59.5912L54.9717 60.5336C53.1342 61.6212 50.9192 61.8599 48.8929 61.1861C38.3667 57.6899 28.6567 51.6949 20.8129 43.8524C12.9692 36.0099 6.97669 26.2999 3.48044 15.7737C2.80794 13.7474 3.04544 11.5324 4.13294 9.6949L5.07544 8.10365C6.62544 5.4874 9.06794 3.51615 11.9529 2.5549C12.1867 2.4774 12.4267 2.4399 12.6629 2.4399C13.4542 2.4399 14.2154 2.85615 14.6267 3.56865L16.2917 6.44865C15.1104 5.4749 13.5679 4.9999 12.0092 5.1749L11.5092 4.2999C11.3892 4.0899 11.1217 4.0174 10.9117 4.1374C10.7017 4.2574 10.6292 4.5249 10.7492 4.7349L19.7517 20.4674L17.6367 21.9287C16.6154 22.6337 16.2679 24.0012 16.8292 25.1087L18.3404 28.0912C20.3242 32.0037 22.9029 35.5611 26.0042 38.6624C29.1067 41.7636 32.6629 44.3424 36.5754 46.3261L39.5579 47.8374C40.6654 48.3987 42.0329 48.0512 42.7379 47.0299L44.2029 44.9099L61.2667 54.6749C60.1829 56.6999 58.5629 58.4074 56.5629 59.5912Z" style="fill:var(--color2, #424852)" />
  <path fill="#424852" d="M35.1829 50.1236C34.6117 49.7761 34.0404 49.4149 33.4842 49.0524C33.2817 48.9199 33.0104 48.9774 32.8792 49.1786C32.7467 49.3811 32.8042 49.6524 33.0054 49.7836C33.5679 50.1524 34.1479 50.5174 34.7279 50.8711C34.7992 50.9149 34.8779 50.9349 34.9554 50.9349C35.1029 50.9349 35.2467 50.8599 35.3292 50.7249C35.4554 50.5186 35.3892 50.2486 35.1829 50.1236Z" style="fill:var(--color2, #424852)" />
  <path fill="#424852" d="M31.5617 47.7412C24.6642 42.8487 18.9379 36.7062 14.5429 29.4837C14.4179 29.2775 14.1479 29.2125 13.9417 29.3375C13.7354 29.4625 13.6692 29.7325 13.7954 29.9387C18.2529 37.2637 24.0592 43.4937 31.0554 48.455C31.1317 48.51 31.2204 48.5362 31.3079 48.5362C31.4454 48.5362 31.5804 48.4725 31.6654 48.3525C31.8054 48.1537 31.7592 47.8812 31.5617 47.7412Z" style="fill:var(--color2, #424852)" />
  <path fill="#b1040e" d="M56.9267 2H37.2442C34.0742 2 31.5042 4.57 31.5042 7.74V22.6038C31.5042 25.7738 34.0742 28.3438 37.2442 28.3438C38.2479 28.3438 39.0629 29.1575 39.0629 30.1625V33.9487C39.0629 34.6675 39.9329 35.0288 40.4404 34.52L45.6454 29.315C46.2667 28.6938 47.1092 28.345 47.9867 28.345H56.9254C60.0954 28.345 62.6654 25.775 62.6654 22.605V7.74C62.6667 4.57 60.0967 2 56.9267 2ZM55.9117 17.25C55.9117 17.7825 55.4804 18.215 54.9467 18.215H50.1679C50.0304 18.215 49.9192 18.3263 49.9192 18.4638V23.2425C49.9192 23.775 49.4879 24.2075 48.9542 24.2075H45.2142C44.6817 24.2075 44.2492 23.7763 44.2492 23.2425V18.4625C44.2492 18.325 44.1379 18.2138 44.0004 18.2138H39.2217C38.6892 18.2138 38.2567 17.7825 38.2567 17.2488V13.5087C38.2567 12.9762 38.6879 12.5437 39.2217 12.5437H44.0004C44.1379 12.5437 44.2492 12.4325 44.2492 12.295V7.5175C44.2492 6.985 44.6804 6.5525 45.2142 6.5525H48.9542C49.4867 6.5525 49.9192 6.98375 49.9192 7.5175V12.2963C49.9192 12.4338 50.0304 12.545 50.1679 12.545H54.9467C55.4792 12.545 55.9117 12.9763 55.9117 13.51V17.25Z" style="fill:var(--color1, #b1040e)" />
  <path fill="#d4e1e8" d="M13.0029 11.5036L10.4904 6.91732C9.94043 5.91232 8.51793 5.85482 7.88668 6.81107L5.81168 9.96357C4.78918 11.5173 5.59918 13.6148 7.40043 14.0786L10.4017 14.8498C12.3592 15.3523 13.9729 13.2761 13.0029 11.5036Z" style="fill:var(--color4, #d4e1e8)" />
  <path  fill="#d4e1e8" d="M54.9729 52.5298L57.7792 54.2198C58.8167 54.8448 58.9167 56.3111 57.9742 57.0711L56.7754 58.0386C55.6792 58.9236 54.0392 58.4998 53.5079 57.1948L52.4779 54.6648C51.8504 53.1236 53.5479 51.6723 54.9729 52.5298Z" style="fill:var(--color4, #d4e1e8)" />
    </symbol>
    <symbol id="icon-clock" viewBox="0 0 32 32">
      <path fill="#b1040e" d="M16 0c-3.165 0-6.258.938-8.889 2.696S2.429 6.953 1.218 9.877C.007 12.801-.31 16.018.308 19.121s2.141 5.955 4.379 8.192c2.238 2.238 5.089 3.761 8.192 4.379s6.321.3 9.244-.911c2.924-1.211 5.422-3.262 7.18-5.893S32 19.163 32 15.999c-.004-4.242-1.692-8.309-4.691-11.309S20.242.003 16-.001zm8.616 17.231h-8.615c-.326 0-.639-.13-.87-.36s-.36-.544-.36-.87V7.386c0-.326.13-.639.36-.87s.544-.36.87-.36c.326 0 .639.13.87.36s.36.544.36.87v7.385h7.385c.326 0 .639.13.87.36s.361.544.361.87c0 .326-.13.639-.361.87s-.544.36-.87.36z" style="fill:var(--color1, #b1040e)"/>
    </symbol>
    <symbol id="icon-facebook" viewBox="0 0 32 32">
      <path  d="M12.264 28.667h5.333v-10.68h4.805l.528-5.307h-5.333V10c0-.354.141-.693.391-.943s.589-.391.943-.391h4V3.333h-4c-1.768 0-3.464.702-4.714 1.953S12.264 8.232 12.264 10v2.68H9.597l-.528 5.307h3.195v10.68z" />
    </symbol>
    <symbol id="icon-clinic" viewBox="0 0 65 64">
  <path fill="#B1040E" d="M25.9683 62.0001H31.8958V50.7892C31.8958 50.5475 32.0916 50.3517 32.3333 50.3517C32.5749 50.3517 32.7708 50.5475 32.7708 50.7892V62.0001H38.6982V48.7026H25.9683V62.0001Z"  style="fill:var(--color1, #b1040e)"/>
  <path fill="#B1040E" d="M53.6355 30.4775H50.9271C50.5226 30.4775 50.1946 30.8055 50.1946 31.21V33.9184C50.1946 34.323 50.5226 34.6509 50.9271 34.6509H53.6355C54.0401 34.6509 54.368 34.323 54.368 33.9184V31.21C54.368 30.8055 54.0401 30.4775 53.6355 30.4775Z" style="fill:var(--color1, #b1040e)" />
  <path fill="#B1040E" d="M53.6355 39.5898H50.9271C50.5226 39.5898 50.1946 39.9178 50.1946 40.3223V43.0307C50.1946 43.4353 50.5226 43.7632 50.9271 43.7632H53.6355C54.0401 43.7632 54.368 43.4353 54.368 43.0307V40.3223C54.368 39.9178 54.0401 39.5898 53.6355 39.5898Z" style="fill:var(--color1, #b1040e)"/>
  <path fill="#B1040E" d="M53.6355 48.7026H50.9271C50.5226 48.7026 50.1946 49.0306 50.1946 49.4351V52.1435C50.1946 52.5481 50.5226 52.876 50.9271 52.876H53.6355C54.0401 52.876 54.368 52.5481 54.368 52.1435V49.4351C54.368 49.0306 54.0401 48.7026 53.6355 48.7026Z"  style="fill:var(--color1, #b1040e)"/>
  <path fill="#B1040E" d="M13.7393 30.4775H11.0309C10.6264 30.4775 10.2984 30.8055 10.2984 31.21V33.9184C10.2984 34.323 10.6264 34.6509 11.0309 34.6509H13.7393C14.1438 34.6509 14.4718 34.323 14.4718 33.9184V31.21C14.4718 30.8055 14.1438 30.4775 13.7393 30.4775Z"  style="fill:var(--color1, #b1040e)"/>
  <path fill="#B1040E" d="M13.7393 39.5898H11.0309C10.6264 39.5898 10.2984 39.9178 10.2984 40.3223V43.0307C10.2984 43.4353 10.6264 43.7632 11.0309 43.7632H13.7393C14.1438 43.7632 14.4718 43.4353 14.4718 43.0307V40.3223C14.4718 39.9178 14.1438 39.5898 13.7393 39.5898Z" style="fill:var(--color1, #b1040e)" />
  <path fill="#B1040E" d="M13.7393 48.7026H11.0309C10.6264 48.7026 10.2984 49.0306 10.2984 49.4351V52.1435C10.2984 52.5481 10.6264 52.876 11.0309 52.876H13.7393C14.1438 52.876 14.4718 52.5481 14.4718 52.1435V49.4351C14.4718 49.0306 14.1438 48.7026 13.7393 48.7026Z" style="fill:var(--color1, #b1040e)" />
  <path fill="#D4E1E8" d="M37.6045 7.21043H31.6304C31.3935 7.21043 31.1811 7.03302 31.1687 6.79643C31.1556 6.54412 31.3562 6.33543 31.6056 6.33543H36.5336C37.0427 6.33543 37.4362 5.88862 37.372 5.38357L37.299 4.81008C37.2269 4.24333 36.7459 3.81774 36.1746 3.81508L28.1798 3.77784C27.4916 3.77464 26.9579 4.37776 27.0448 5.06038L27.3676 7.59694C27.4397 8.16369 27.9206 8.58927 28.4919 8.59193L36.4868 8.62916C37.1749 8.63237 37.7087 8.02926 37.6218 7.34665L37.6045 7.21043Z" style="fill:var(--color4, #d4e1e8)" />
  <path fill="#424852" d="M25.024 27.1609C25.0412 29.0755 25.0938 34.902 26.9815 36.5894C27.3689 36.9357 27.8126 37.1105 28.3032 37.1104C28.3761 37.1104 28.4502 37.1065 28.5252 37.0988C29.165 37.0328 29.6388 36.4671 29.6039 35.811C29.4673 33.2418 30.2702 30.9515 31.5562 30.2413C32.0428 29.9726 32.6238 29.9726 33.1104 30.2413C34.3964 30.9515 35.1992 33.2418 35.0626 35.811C35.0278 36.4671 35.5016 37.0328 36.1413 37.0988C36.7206 37.1586 37.2401 36.9873 37.6851 36.5894C38.1519 36.172 39.5727 34.902 39.6426 27.1609C39.6436 27.0423 39.673 26.9265 39.7275 26.8261C41.8738 22.8735 41.2375 18.6467 38.2474 16.9943C37.0838 16.3513 35.6866 16.2751 34.4146 16.7851C33.5694 17.1239 32.9242 17.354 32.3333 17.5274C31.6863 17.3365 30.9934 17.0823 30.2519 16.7851C28.9799 16.2751 27.5829 16.3513 26.4192 16.9943C23.429 18.6468 22.7927 22.8735 24.9391 26.8262C24.9936 26.9265 25.0229 27.0423 25.024 27.1609ZM26.8424 17.7602C27.7751 17.2447 28.8991 17.1854 29.9264 17.5972C31.9519 18.4092 34.273 19.2159 36.1851 18.5036C36.4115 18.4193 36.5266 18.1673 36.4423 17.9409C36.3579 17.7145 36.1063 17.5994 35.8795 17.6837C35.3188 17.8926 34.7003 17.9455 34.0187 17.8785C34.2442 17.7934 34.4835 17.7001 34.7402 17.5972C35.7674 17.1853 36.8915 17.2447 37.8242 17.7602C40.3809 19.1731 40.8686 22.8911 38.9586 26.4086C38.836 26.6343 38.77 26.8916 38.7676 27.153C38.7373 30.508 38.4238 34.7554 37.102 35.937C36.841 36.1703 36.5641 36.2629 36.2312 36.2284C36.0587 36.2106 35.9265 36.0442 35.9364 35.8574C36.0926 32.92 35.1269 30.3553 33.5334 29.4753C33.1576 29.2679 32.7455 29.1642 32.3333 29.1642C31.9211 29.1642 31.5089 29.2679 31.1332 29.4753C29.5397 30.3553 28.574 32.92 28.7301 35.8575C28.7401 36.0442 28.6079 36.2106 28.4354 36.2284C28.1024 36.2629 27.8255 36.1703 27.5646 35.937C26.2428 34.7554 25.9292 30.508 25.899 27.153C25.8966 26.8916 25.8305 26.6343 25.708 26.4086C23.7979 22.8911 24.2856 19.1731 26.8424 17.7602Z"  style="fill:var(--color2, #424852)"/>
  <path fill="#424852" d="M62.3333 61.5625H45.8647V26.2863H58.6983V59.8427C58.6983 60.0843 58.8941 60.2802 59.1358 60.2802C59.3774 60.2802 59.5733 60.0843 59.5733 59.8427V26.2863H60.1441C60.8509 26.2863 61.4258 25.7113 61.4258 25.0046V23.0779C61.4258 22.3712 60.8509 21.7963 60.1441 21.7963H55.7658V16.7787H56.8758C57.1174 16.7787 57.3133 16.5829 57.3133 16.3412C57.3133 16.0996 57.1174 15.9037 56.8758 15.9037H45.8647V14.7188H47.3305C48.0372 14.7188 48.6121 14.1439 48.6121 13.4371V11.5104C48.6121 10.8037 48.0372 10.2288 47.3305 10.2288H25.5782V2.4375H39.0883V8.3103C39.0883 8.55194 39.2842 8.7478 39.5258 8.7478C39.7675 8.7478 39.9633 8.55194 39.9633 8.3103V2.4375H40.6969C40.9385 2.4375 41.1344 2.24164 41.1344 2C41.1344 1.75836 40.9385 1.5625 40.6969 1.5625H23.9697C23.7281 1.5625 23.5322 1.75836 23.5322 2C23.5322 2.24164 23.7281 2.4375 23.9697 2.4375H24.7032V10.2288H17.3361C16.6294 10.2288 16.0544 10.8037 16.0544 11.5104V13.4371C16.0544 14.1439 16.6294 14.7188 17.3361 14.7188H18.8018V21.7963H9.77579V16.7787H16.9135C17.1551 16.7787 17.351 16.5829 17.351 16.3412C17.351 16.0996 17.1551 15.9037 16.9135 15.9037H7.7908C7.54916 15.9037 7.3533 16.0996 7.3533 16.3412C7.3533 16.5829 7.54916 16.7787 7.7908 16.7787H8.90079V21.7963H4.52243C3.8157 21.7963 3.24075 22.3712 3.24075 23.0779V25.0046C3.24075 25.7113 3.8157 26.2863 4.52243 26.2863H5.09329V61.5625H2.33328C2.09164 61.5625 1.89578 61.7584 1.89578 62C1.89578 62.2416 2.09164 62.4375 2.33328 62.4375H62.3333C62.5749 62.4375 62.7708 62.2416 62.7708 62C62.7708 61.7584 62.5749 61.5625 62.3333 61.5625ZM45.8647 16.7787H54.8908V21.7963H45.8647V16.7787ZM45.8647 22.6713H49.8572C49.0761 23.0953 48.4585 23.8022 48.1617 24.6847C48.0753 24.9414 48.1142 25.2018 48.2371 25.4113H45.8647V22.6713ZM4.52243 25.4113C4.29819 25.4113 4.11575 25.2288 4.11575 25.0046V23.0779C4.11575 22.8537 4.29819 22.6713 4.52243 22.6713H8.63876C7.87949 23.0897 7.28121 23.783 6.99729 24.6462C6.9079 24.918 6.95346 25.1927 7.08797 25.4113L4.52243 25.4113ZM18.8018 61.5625H5.96829V26.2863H18.8018V61.5625ZM17.3361 13.8438C17.1118 13.8438 16.9294 13.6614 16.9294 13.4371V11.5104C16.9294 11.2862 17.1118 11.1038 17.3361 11.1038H23.3814C22.5176 11.5185 21.7939 12.2084 21.3462 13.0959C21.2185 13.349 21.2373 13.6228 21.3539 13.8438H17.3361ZM44.9897 25.8469C44.9897 25.8476 44.9895 25.8481 44.9895 25.8488C44.9895 25.8494 44.9897 25.8499 44.9897 25.8506V61.5625H19.6768V25.8506C19.6768 25.8499 19.677 25.8494 19.677 25.8488C19.677 25.8481 19.6768 25.8476 19.6768 25.8469V14.7188H44.9897V25.8469Z" style="fill:var(--color2, #424852)" />
  <path fill="#424852" d="M39.3607 44.9961H25.3059C24.6708 44.9961 24.1541 45.5128 24.1541 46.1478V47.9885C24.1541 48.6236 24.6708 49.1403 25.3059 49.1403H39.3607C39.9958 49.1403 40.5124 48.6236 40.5124 47.9885V46.1478C40.5124 45.5128 39.9958 44.9961 39.3607 44.9961ZM39.6374 47.9885C39.6374 48.1411 39.5133 48.2653 39.3607 48.2653H25.3059C25.1533 48.2653 25.0291 48.1411 25.0291 47.9885V46.1478C25.0291 45.9952 25.1533 45.8711 25.3059 45.8711H39.3607C39.5133 45.8711 39.6374 45.9952 39.6374 46.1478V47.9885Z" style="fill:var(--color2, #424852)" />
  <path fill="#424852" d="M52.0125 18.6001H48.7428C48.5011 18.6001 48.3053 18.796 48.3053 19.0376C48.3053 19.2792 48.5011 19.4751 48.7428 19.4751H52.0125C52.2542 19.4751 52.45 19.2792 52.45 19.0376C52.45 18.796 52.2542 18.6001 52.0125 18.6001Z" style="fill:var(--color2, #424852)" />
  <path fill="#424852" d="M12.654 18.6001C12.4124 18.6001 12.2165 18.796 12.2165 19.0376C12.2165 19.2792 12.4124 19.4751 12.654 19.4751H15.9238C16.1654 19.4751 16.3613 19.2792 16.3613 19.0376C16.3613 18.796 16.1654 18.6001 15.9238 18.6001H12.654Z" style="fill:var(--color2, #424852)" />
  <path fill="#424852" d="M28.9853 5.46436C28.7437 5.46436 28.5478 5.66022 28.5478 5.90186C28.5478 6.14349 28.7437 6.33936 28.9853 6.33936H35.4745C35.7162 6.33936 35.912 6.14349 35.912 5.90186C35.912 5.66022 35.7162 5.46436 35.4745 5.46436H28.9853Z" style="fill:var(--color2, #424852)" />
  <path fill="#424852" d="M37.6861 39.2817C37.6861 39.0401 37.4903 38.8442 37.2486 38.8442H27.4179C27.1763 38.8442 26.9804 39.0401 26.9804 39.2817C26.9804 39.5234 27.1763 39.7192 27.4179 39.7192H37.2486C37.4903 39.7192 37.6861 39.5234 37.6861 39.2817Z" style="fill:var(--color2, #424852)" />
  <path fill="#424852" d="M28.6969 41.9199C28.4553 41.9199 28.2594 42.1158 28.2594 42.3574C28.2594 42.5991 28.4553 42.7949 28.6969 42.7949H35.9696C36.2113 42.7949 36.4071 42.5991 36.4071 42.3574C36.4071 42.1158 36.2113 41.9199 35.9696 41.9199H28.6969Z" style="fill:var(--color2, #424852)" />

    </symbol>
    <symbol id="icon-instagram" viewBox="0 0 32 32">
      <path  d="M16.001 12c-1.061 0-2.078.421-2.828 1.172S12.001 14.94 12.001 16c0 1.061.421 2.078 1.172 2.828S14.941 20 16.001 20c1.061 0 2.078-.421 2.828-1.172S20.001 17.06 20.001 16c0-1.061-.421-2.078-1.172-2.828S17.061 12 16.001 12zm0-2.667c1.768 0 3.464.702 4.714 1.953s1.953 2.946 1.953 4.714-.702 3.464-1.953 4.714c-1.25 1.25-2.946 1.953-4.714 1.953s-3.464-.702-4.714-1.953c-1.25-1.25-1.953-2.946-1.953-4.714s.702-3.464 1.953-4.714c1.25-1.25 2.946-1.953 4.714-1.953zM24.668 9c0 .442-.176.866-.488 1.178s-.737.488-1.179.488c-.442 0-.866-.176-1.179-.488s-.488-.736-.488-1.178c0-.442.176-.866.488-1.178s.737-.488 1.179-.488c.442 0 .866.176 1.179.488s.488.736.488 1.178zm-8.667-3.667c-3.299 0-3.837.009-5.372.077-1.045.049-1.747.189-2.397.443-.545.2-1.037.52-1.44.937-.417.403-.738.895-.939 1.44-.253.653-.393 1.353-.441 2.397-.069 1.472-.079 1.987-.079 5.372 0 3.3.009 3.837.077 5.372.049 1.044.189 1.747.441 2.396.227.58.493.997.936 1.44.449.448.867.716 1.44.937.659.255 1.36.396 2.4.444 1.472.069 1.987.077 5.372.077 3.3 0 3.837-.009 5.372-.077 1.043-.049 1.744-.189 2.396-.441.544-.201 1.036-.521 1.44-.937.449-.448.717-.865.939-1.44.253-.656.395-1.357.443-2.4.069-1.471.077-1.987.077-5.371 0-3.299-.009-3.837-.077-5.372-.049-1.043-.191-1.747-.443-2.397-.201-.544-.521-1.036-.937-1.44-.403-.418-.895-.738-1.44-.939-.653-.253-1.355-.393-2.397-.441-1.471-.069-1.985-.077-5.372-.077zM16 2.667c3.623 0 4.075.013 5.497.08 1.419.067 2.387.289 3.236.62.88.339 1.621.797 2.363 1.537.678.667 1.203 1.473 1.537 2.363.329.849.553 1.817.62 3.237.063 1.421.08 1.873.08 5.496s-.013 4.075-.08 5.496c-.067 1.42-.291 2.387-.62 3.237-.334.89-.859 1.697-1.537 2.363-.667.678-1.473 1.202-2.363 1.537-.849.329-1.817.553-3.236.62-1.423.063-1.875.08-5.497.08s-4.075-.013-5.497-.08c-1.419-.067-2.385-.291-3.236-.62-.89-.334-1.697-.859-2.363-1.537-.678-.666-1.203-1.473-1.537-2.363-.331-.849-.553-1.817-.62-3.237-.064-1.421-.08-1.873-.08-5.496s.013-4.075.08-5.496c.067-1.42.289-2.387.62-3.237.334-.89.858-1.697 1.537-2.363.666-.678 1.473-1.203 2.363-1.537.849-.331 1.816-.553 3.236-.62 1.424-.063 1.876-.08 5.499-.08z" />
    </symbol>
    <symbol id="icon-like" viewBox="0 0 33 32">
      <path fill="#424852" d="M23.551 18.39c.374-.238.64-.634.698-1.1.015-.12-.071-.229-.191-.244s-.229.071-.244.191c-.067.543-.531.953-1.079.953-.121 0-.219.098-.219.219s.098.219.219.219h.082c.554 0 1.004.451 1.004 1.004v.968c0 .554-.451 1.004-1.004 1.004h-.874c-.121 0-.219.098-.219.219s.098.219.219.219h.456c.554 0 1.004.451 1.004 1.004v.968c0 .554-.451 1.004-1.004 1.004h-.456c-.121 0-.219.098-.219.219s.098.219.219.219c.551 0 1.002.449 1.004 1l.004.968c.001.269-.102.523-.293.713s-.442.296-.712.296H11.664c-.723 0-1.439-.188-2.069-.542l-1.364-.767c-.105-.059-.239-.022-.298.083s-.022.239.083.298l1.364.767c.696.391 1.485.598 2.283.598h10.282c.386 0 .749-.151 1.022-.424s.422-.637.42-1.024l-.004-.968c-.002-.432-.195-.819-.499-1.083.556-.2.955-.733.955-1.358v-.968c0-.44-.198-.834-.51-1.099.542-.207.928-.733.928-1.347v-.968c.001-.527-.284-.99-.708-1.241zM8.132 16.92c.634-.422 1.177-.99 1.573-1.641l2.234-3.683c.403-.663.615-1.423.614-2.198l-.001-2.136c0-.238.049-.469.146-.686.185-.416.663-.616 1.089-.453l.078.029c.727.277 1.276.893 1.469 1.646l.014.054c.394 1.546.453 3.126.174 4.697-.113.633-.225 1.263-.306 1.72-.042.234.022.473.174.655s.377.287.614.287h2.816c.121 0 .219-.098.219-.219s-.098-.219-.219-.219h-2.816c-.108 0-.21-.047-.279-.131s-.098-.191-.079-.297c.082-.457.194-1.088.307-1.721.29-1.633.229-3.275-.181-4.882l-.014-.054c-.227-.892-.877-1.619-1.737-1.947l-.078-.029c-.643-.245-1.366.056-1.645.684-.122.274-.183.564-.183.864l.001 2.136c0 .695-.191 1.377-.551 1.971L9.331 15.05c-.363.597-.861 1.117-1.442 1.504l-.608.406c-.068-.489-.489-.868-.997-.868H2.04c-.556 0-1.008.452-1.008 1.008v9.856c0 .556.452 1.008 1.008 1.008h4.245c.556 0 1.008-.452 1.008-1.008V17.48l.841-.56zm-6.093-.389h4.245c.314 0 .57.256.57.57v.868H4.81c-1.534 0-2.841.97-3.342 2.329v-3.197c.001-.314.256-.57.571-.57zm1.195 8.922c0-.512.415-.927.928-.927s.928.415.928.927-.415.927-.928.927-.928-.416-.928-.927z" style="fill:var(--color2, #424852)"/>
      <path fill="#b1040e" d="M24.223 2.45c-3.881 0-7.027 3.146-7.027 7.027s3.146 7.027 7.027 7.027c3.881 0 7.027-3.146 7.027-7.027S28.104 2.45 24.223 2.45zm3.553 7.729-.433.366c-1.069.904-2.022 1.937-2.837 3.074-.139.194-.427.194-.567 0-.816-1.137-1.769-2.17-2.837-3.074l-.433-.366c-.984-.833-1.047-2.329-.135-3.241.861-.861 2.256-.861 3.117 0l.571.571.571-.571c.861-.861 2.256-.861 3.117 0 .913.912.851 2.408-.134 3.241z" style="fill:var(--color1, #b1040e)"/>
      <path fill="#d4e1e8" d="m9.64 26.353.572.343c.531.319 1.139.487 1.758.487h5.433c.389 0 .704-.315.704-.704v-.395c0-.971-.676-1.811-1.624-2.019l-6.472-1.42c-.713-.156-1.388.386-1.388 1.116v.794c0 .738.386 1.42 1.018 1.798z" style="fill:var(--color4, #d4e1e8)"/>
    </symbol>
    <symbol id="icon-linkedin" viewBox="0 0 32 32">
      <path  d="M9.253 6.667c0 .707-.282 1.385-.782 1.885s-1.179.78-1.886.78c-.707 0-1.385-.282-1.885-.782s-.78-1.179-.78-1.886c0-.707.282-1.385.782-1.885s1.179-.78 1.886-.78c.707 0 1.385.282 1.885.782s.78 1.179.78 1.886zm.08 4.64H4V28h5.333V11.307zm8.427 0h-5.307V28h5.253v-8.76c0-4.88 6.36-5.333 6.36 0V28h5.267V17.427c0-8.227-9.413-7.92-11.627-3.88l.053-2.24z" />
    </symbol>
    <symbol id="icon-mail" viewBox="0 0 64 64">
      <path fill="#B1040E" d="M50.045 12.9873C43.4425 12.9873 38.09 18.3398 38.09 24.9423C38.09 31.5448 43.4425 36.8973 50.045 36.8973C56.6475 36.8973 62 31.5448 62 24.9423C62 18.3398 56.6475 12.9873 50.045 12.9873ZM51.9775 31.1661C51.8325 32.1036 51.0225 32.8198 50.045 32.8198C49.0675 32.8198 48.2575 32.1023 48.1125 31.1661C48.0875 31.0086 48.2075 30.8636 48.3675 30.8636H51.7225C51.8825 30.8636 52.0025 31.0073 51.9775 31.1661ZM56.145 29.2786C56.145 29.6186 55.87 29.8936 55.53 29.8936H44.56C44.22 29.8936 43.945 29.6186 43.945 29.2786V28.8048C43.945 28.3948 44.0787 27.9973 44.3262 27.6711L44.8675 26.9573C45.2812 26.4123 45.5275 25.7586 45.5762 25.0761L45.75 22.6436C45.8875 20.7148 47.2812 19.1598 49.0962 18.7511C49.095 18.7161 49.0925 18.6811 49.0925 18.6448C49.0925 17.7723 49.5187 17.0648 50.0437 17.0648C50.5687 17.0648 50.995 17.7723 50.995 18.6448C50.995 18.6811 50.9937 18.7161 50.9912 18.7511C52.8062 19.1598 54.2 20.7148 54.3375 22.6436L54.5112 25.0761C54.56 25.7586 54.8062 26.4123 55.22 26.9573L55.7612 27.6711C56.0087 27.9973 56.1425 28.3961 56.1425 28.8048V29.2786H56.145Z" style="fill:var(--color1, #b1040e)" />
  <path fill="#D4E1E8" d="M32.625 28.1413L31.0888 18.6388C30.62 15.7413 28.1188 13.6113 25.1838 13.6113H23.875C22.11 13.6113 20.6537 14.9338 20.4425 16.6413H25.4375C25.6788 16.6413 25.875 16.8376 25.875 17.0788C25.875 17.3201 25.6788 17.5163 25.4375 17.5163H20.415V23.4851H27.4875C27.7287 23.4851 27.925 23.6813 27.925 23.9226C27.925 24.1638 27.7287 24.3601 27.4875 24.3601H20.415V28.7713C20.415 30.6376 21.9275 32.1501 23.7938 32.1501H29.2113C31.3413 32.1513 32.965 30.2438 32.625 28.1413Z" style="fill:var(--color4, #d4e1e8)" />
  <path fill="#424852" d="M25.5287 43.2311C25.4325 43.2311 25.335 43.1999 25.2537 43.1336L2.015 24.3336C1.8275 24.1811 1.7975 23.9061 1.95 23.7186C2.1025 23.5311 2.3775 23.5011 2.565 23.6536L25.8037 42.4549C25.9912 42.6074 26.0025 42.8424 25.85 43.0299C25.7638 43.1361 25.6562 43.2311 25.5287 43.2311Z"  style="fill:var(--color2, #424852)"/>
  <path  fill="#424852" d="M32.6825 43.2311C32.555 43.2311 32.5513 43.0973 32.465 42.9911C32.3125 42.8036 32.2188 42.6061 32.4075 42.4536L40.9775 35.5198C41.165 35.3686 41.4413 35.3973 41.5925 35.5848C41.745 35.7723 41.715 36.0486 41.5275 36.1998L32.9575 43.1336C32.8763 43.1998 32.7788 43.2311 32.6825 43.2311Z" style="fill:var(--color2, #424852)"/>
  <path fill="#424852" d="M53.4113 62.2665H4.8C3.015 62.2665 1.5625 60.814 1.5625 59.029V25.3553C1.5625 24.2078 2.07375 23.1353 2.96625 22.414L10.43 16.3753C10.6175 16.224 10.8938 16.2528 11.045 16.4403C11.1975 16.6278 11.1675 16.904 10.98 17.0553L3.51625 23.094C2.83 23.649 2.4375 24.4728 2.4375 25.3553V59.029C2.4375 60.3315 3.4975 61.3915 4.8 61.3915H53.4113C54.7138 61.3915 55.7738 60.3315 55.7738 59.029V36.8978C55.7738 36.6565 55.97 36.4603 56.2113 36.4603C56.4525 36.4603 56.6488 36.6565 56.6488 36.8978V59.0303C56.6488 60.8153 55.1963 62.2665 53.4113 62.2665Z"  style="fill:var(--color2, #424852)"/>
  <path fill="#424852" d="M37.795 9.29758C37.6988 9.29758 37.6013 9.26633 37.52 9.20008L29.58 2.77633C29.305 2.55383 28.905 2.55383 28.63 2.77633L20.69 9.20008C20.5025 9.35133 20.2263 9.32258 20.075 9.13508C19.9225 8.94758 19.9525 8.67133 20.14 8.52008L28.08 2.09633C28.6738 1.61633 29.5363 1.61633 30.13 2.09633L38.07 8.52008C38.2575 8.67258 38.2875 8.94758 38.135 9.13508C38.0488 9.24258 37.9225 9.29758 37.795 9.29758Z"  style="fill:var(--color2, #424852)"/>
  <path fill="#424852" d="M23.6687 8.85986L26.4325 6.62361C28.94 4.59486 32.5237 4.59486 35.0312 6.62361L37.795 8.85986H23.6687Z"  style="fill:var(--color2, #424852)"/>
  <path  fill="#424852" d="M7.33625 28.1563L10.705 30.8013L10.5662 19.8301L7.295 22.4776C5.48125 23.9451 5.50125 26.7163 7.33625 28.1563Z"  style="fill:var(--color2, #424852)"/>
  <path fill="#424852" d="M55.3013 61.5313C55.205 61.5313 55.1075 61.5001 55.0262 61.4338L29.9225 41.1238C29.4488 40.7413 28.7625 40.7413 28.2888 41.1238L5.3475 59.6838C5.16 59.8351 4.88375 59.8063 4.7325 59.6188C4.58 59.4313 4.61 59.1551 4.7975 59.0038L27.7375 40.4438C28.53 39.8026 29.68 39.8026 30.4725 40.4438L55.5775 60.7538C55.765 60.9063 55.795 61.1813 55.6425 61.3688C55.555 61.4763 55.4287 61.5313 55.3013 61.5313Z"  style="fill:var(--color2, #424852)"/>
  <path  fill="#424852" d="M10.705 31.2386C10.4638 31.2386 10.2675 31.0424 10.2675 30.8011V10.6124C10.2675 9.40486 11.25 8.42236 12.4575 8.42236H45.7525C46.96 8.42236 47.9425 9.40486 47.9425 10.6124V11.4349C47.9425 11.6761 47.7463 11.8724 47.505 11.8724C47.2638 11.8724 47.0675 11.6761 47.0675 11.4349V10.6124C47.0675 9.88736 46.4775 9.29736 45.7525 9.29736H12.4575C11.7325 9.29736 11.1425 9.88736 11.1425 10.6124V30.8011C11.1425 31.0424 10.9475 31.2386 10.705 31.2386Z" style="fill:var(--color2, #424852)" />
  <path fill="#424852" d="M38.715 16.6577H18.2538C18.0125 16.6577 17.8163 16.4615 17.8163 16.2202C17.8163 15.979 18.0125 15.7827 18.2538 15.7827H38.715C38.9563 15.7827 39.1525 15.979 39.1525 16.2202C39.1525 16.4615 38.9563 16.6577 38.715 16.6577Z" style="fill:var(--color2, #424852)" />
  <path  fill="#424852" d="M36.1625 23.4951H18.2538C18.0125 23.4951 17.8163 23.2989 17.8163 23.0576C17.8163 22.8164 18.0125 22.6201 18.2538 22.6201H36.1625C36.4038 22.6201 36.6 22.8164 36.6 23.0576C36.6 23.2989 36.4038 23.4951 36.1625 23.4951Z"style="fill:var(--color2, #424852)" />
  <path  fill="#424852" d="M36.5488 30.3311H18.2538C18.0125 30.3311 17.8163 30.1348 17.8163 29.8936C17.8163 29.6523 18.0125 29.4561 18.2538 29.4561H36.55C36.7913 29.4561 36.9875 29.6523 36.9875 29.8936C36.9875 30.1348 36.7913 30.3311 36.5488 30.3311Z" style="fill:var(--color2, #424852)" />
    </symbol>
    <symbol id="icon-phone" viewBox="0 0 32 32">
      <path fill="#b1040e" d="M31.981 24.173c-.285 2.168-1.35 4.158-2.995 5.599s-3.759 2.233-5.945 2.229c-12.704 0-23.04-10.336-23.04-23.04-.004-2.187.788-4.3 2.229-5.946S5.66.305 7.829.02c.548-.067 1.103.045 1.583.32s.857.697 1.076 1.203l3.379 7.544v.019c.168.388.238.811.202 1.233s-.175.827-.405 1.182c-.029.043-.059.083-.091.123l-3.331 3.949c1.198 2.435 3.746 4.96 6.213 6.162l3.894-3.314c.038-.032.078-.062.12-.09.354-.236.761-.38 1.185-.419s.851.028 1.242.195l.021.01 7.538 3.378c.508.219.931.596 1.206 1.076s.388 1.035.322 1.584zM20.48 12.8h6.4c.339 0 .665-.135.905-.375s.375-.566.375-.905c0-.339-.135-.665-.375-.905s-.566-.375-.905-.375h-3.309l5.494-5.494c.24-.24.375-.566.375-.906s-.135-.665-.375-.906c-.24-.24-.566-.375-.906-.375s-.665.135-.906.375L21.758 8.43V5.12c0-.34-.135-.665-.375-.905s-.566-.375-.905-.375c-.339 0-.665.135-.905.375s-.375.566-.375.905v6.4c0 .339.135.665.375.905s.566.375.905.375z" style="fill:var(--color1, #b1040e)"/>
    </symbol>
    <symbol id="icon-technology" viewBox="0 0 33 32">
      <path fill="#d4e1e8" d="M7.379 27.893c-.148.244-.321.508-.524.694-.204.187-.448-.04-.663-.322-.162-.213-.501-.099-.501.168v1.963c0 .333.27.604.604.604h.958c.334 0 .604-.27.604-.604v-2.37c0-.261-.343-.356-.478-.133zm19.619 0c-.148.244-.321.508-.524.694s-.448-.04-.663-.322c-.162-.213-.501-.099-.501.168v1.963c0 .333.27.604.604.604h.957c.334 0 .604-.27.604-.604v-2.37c0-.261-.343-.356-.478-.133z" style="fill:var(--color4, #d4e1e8)"/>
      <path fill="#b1040e" d="M17.47 1.363c.154-.149.014-.407-.195-.355-1.129.279-2.09.853-2.861 1.757-.763.895-1.032 2.11-.731 3.247l.63 2.377c.039.146.17.247.321.247h2.629c.2 0 .319-.221.211-.389l-2.121-3.255c-.268-.412-.257-.95.036-1.344.549-.739 1.271-1.504 2.082-2.284zM26.393 1c-1.006 0-2.818 4.545-2.818 6.101s1.261 1.534 2.818 1.534c1.556 0 2.817.022 2.817-1.534S27.398 1 26.393 1zM6.773 1C4.665 1 2.956 2.709 2.956 4.817s1.709 3.817 3.817 3.817 3.817-1.709 3.817-3.817S8.881 1 6.773 1zm0 5.68c-1.029 0-1.863-.834-1.863-1.863s.834-1.863 1.863-1.863 1.863.834 1.863 1.863S7.802 6.68 6.773 6.68z" style="fill:var(--color1, #b1040e)"/>
      <path fill="#424852" d="m17.845 13.989-.46-.154V9.377c0-.121-.098-.219-.219-.219s-.219.098-.219.219v4.311l-.408-.137c-.294-.099-.618-.099-.912 0l-.408.137V9.377c0-.121-.098-.219-.219-.219s-.219.098-.219.219v4.458l-.46.154c-.584.196-.976.741-.976 1.357v7.598c0 .789.642 1.431 1.431 1.431h.004v6.021c0 .454.369.823.823.823h.957c.454 0 .823-.369.823-.823v-5.114c0-.121-.098-.219-.219-.219s-.219.098-.219.219v5.114c0 .212-.173.385-.385.385h-.957c-.213 0-.385-.173-.385-.385v-6.021h2.17c.789 0 1.431-.642 1.431-1.431v-7.598c0-.616-.392-1.161-.976-1.357zm-3.384.415 1.305-.439c.102-.034.209-.051.317-.051s.215.017.317.051l1.305.439c.284.096.503.311.608.578l-4.53 2.342v-1.978c0-.427.272-.806.677-.942zm-.677 3.412 1.874-.969c-.529.539-.915 1.211-1.104 1.957-.003.011-.006.023-.009.034-.054.219.053.416.221.514l-.982.508v-2.045zm3.605 6.122h-2.611c-.548 0-.994-.446-.994-.994v-2.59l4.599-2.378v2.045l-3.761 1.944c-.107.055-.149.187-.094.295.039.075.115.118.194.118.034 0 .068-.008.1-.024l3.56-1.84v2.43c0 .548-.446.994-.994.994zm-7.914-8.905c-.107-.482-.458-.882-.94-1.044l-.46-.155V9.241c0-.121-.098-.219-.219-.219s-.219.098-.219.219v4.446l-.408-.137c-.294-.099-.618-.099-.912 0l-.408.137V9.24c0-.121-.098-.219-.219-.219s-.219.098-.219.219v4.594l-.46.154c-.584.196-.976.741-.976 1.357v7.598c0 .789.642 1.431 1.431 1.431h.004v6.021c0 .454.369.823.823.823h.957c.454 0 .823-.369.823-.823v-6.021h.004c.789 0 1.431-.642 1.431-1.431v-7.598c0-.104-.012-.207-.034-.306-.001-.002-.001-.005-.001-.007zm-.402 2.45-4.599 2.378v-2.045l4.599-2.378v2.045zm-4.599 2.871 1.929-.997c-.544.543-.941 1.226-1.133 1.986-.003.011-.006.023-.009.034-.053.214.049.406.209.506l-.997.516v-2.045zm.677-5.95 1.305-.439c.102-.034.209-.051.317-.051s.215.017.317.051l1.305.439c.284.096.503.311.608.579l-4.53 2.342v-1.978c0-.427.272-.806.677-.942zm2.486 15.992c0 .212-.173.385-.385.385h-.957c-.213 0-.385-.173-.385-.385v-6.021h1.728v6.021zm.442-6.458H5.468c-.548 0-.994-.446-.994-.994v-.053l4.599-2.378v2.43c0 .548-.446.994-.994.994zm20.075-9.949-.46-.154V9.377c0-.121-.098-.219-.219-.219s-.219.098-.219.219v4.311l-.408-.137c-.294-.099-.618-.099-.912 0l-.408.137V9.377c0-.121-.098-.219-.219-.219s-.219.098-.219.219v4.457l-.46.155c-.584.196-.976.741-.976 1.357v7.598c0 .789.642 1.431 1.431 1.431h.004v6.021c0 .454.369.823.823.823h.957c.454 0 .823-.369.823-.823v-6.021h.004c.789 0 1.431-.642 1.431-1.431v-7.598c0-.616-.392-1.161-.976-1.357zm.538 3.494-4.599 2.378v-2.045l4.599-2.377v2.045zm-4.599 2.871 1.874-.969c-.529.539-.915 1.211-1.104 1.957-.003.011-.006.023-.009.034-.054.219.053.416.221.514l-.982.508v-2.045zm.678-5.95 1.305-.439c.102-.034.209-.051.317-.051s.215.017.317.051l1.305.439c.284.096.503.311.608.579l-4.53 2.342v-1.978c0-.427.272-.806.677-.942zm2.486 15.992c0 .212-.173.385-.385.385h-.957c-.212 0-.385-.173-.385-.385v-6.021h1.728v6.021zm.441-6.458h-2.611c-.548 0-.994-.446-.994-.994v-.053l4.599-2.378v2.43c0 .548-.446.994-.994.994z" style="fill:var(--color2, #424852)"/>
    </symbol>
    <symbol id="icon-tooth" viewBox="0 0 65 64">
      <path fill="#424852" d="M62.9496 54.1163L53.9158 45.0825C53.7183 44.885 53.4558 44.7763 53.1758 44.7763C53.0446 44.7763 52.9171 44.8013 52.7983 44.8475L50.1721 42.2225L51.3746 41.02C51.7546 40.64 51.8858 40.0663 51.7071 39.5575C51.6271 39.33 51.3771 39.21 51.1496 39.29C50.9221 39.37 50.8021 39.62 50.8821 39.8475C50.9496 40.04 50.9008 40.2563 50.7558 40.4L45.4333 45.7225C45.2896 45.8663 45.0721 45.915 44.8808 45.8488L43.4871 45.3588C44.9321 44.6313 46.2883 43.6663 47.4933 42.46C50.4383 39.515 52.0608 35.5988 52.0608 31.4325C52.0608 27.2675 50.4383 23.3513 47.4933 20.405C44.9858 17.8975 41.7746 16.35 38.3046 15.945L38.7183 14.1C39.2758 11.615 38.8846 9.04876 37.6171 6.87626C35.3258 2.94751 30.8371 1.06251 26.4458 2.18251L25.6396 2.38876C22.4058 3.21376 18.9721 3.21376 15.7383 2.38876L14.9321 2.18251C11.5246 1.31251 7.98332 2.25626 5.46082 4.70626C2.93707 7.15626 1.89082 10.6688 2.66082 14.1L4.60707 22.775C5.20457 25.44 5.50832 28.175 5.50832 30.9063V44.8263C5.50832 50.3588 6.66457 55.72 8.94457 60.7613C9.33332 61.6213 10.1408 62.1375 11.0558 62.1375C11.1621 62.1375 11.2696 62.13 11.3783 62.1163C12.4233 61.98 13.2096 61.22 13.3821 60.1813L16.7933 39.6975C17.0721 38.02 17.9571 36.5088 19.2908 35.4388C19.8571 34.9838 20.5908 34.8325 21.2846 35.02C21.9396 37.815 23.3583 40.38 25.4383 42.46C28.0896 45.1113 31.4658 46.6063 34.9346 46.945C34.6733 51.6113 33.5671 56.1375 31.6383 60.4013C31.3083 61.13 30.6358 61.3175 30.1146 61.25C29.5946 61.1825 28.9921 60.8275 28.8596 60.0388L26.2633 44.4488C26.2233 44.21 25.9983 44.05 25.7596 44.0888C25.5208 44.1288 25.3596 44.3538 25.3996 44.5925L27.9958 60.1825C28.1683 61.2213 28.9558 61.9813 29.9996 62.1175C30.1083 62.1313 30.2158 62.1388 30.3221 62.1388C31.2371 62.1388 32.0446 61.6225 32.4333 60.7625C34.4046 56.4038 35.5371 51.7775 35.8058 47.0063C36.0246 47.015 36.2446 47.0213 36.4633 47.0213C38.4596 47.0213 40.4558 46.6413 42.3333 45.8813L44.5883 46.675C44.7396 46.7275 44.8958 46.7538 45.0521 46.7538C45.4208 46.7538 45.7833 46.61 46.0508 46.3425L47.2533 45.14L49.8796 47.7663C49.7358 48.1413 49.8133 48.5813 50.1146 48.8838L59.1483 57.9175C59.3458 58.115 59.6083 58.2238 59.8883 58.2238C60.1683 58.2238 60.4308 58.115 60.6283 57.9175L62.9483 55.5975C63.3571 55.1888 63.3571 54.525 62.9496 54.1163ZM18.7358 34.7625C17.2421 35.9625 16.2458 37.6638 15.9308 39.5538L12.5196 60.0388C12.3883 60.8288 11.7858 61.1825 11.2646 61.25C10.7446 61.3175 10.0708 61.1313 9.74082 60.4013C7.51207 55.4738 6.38207 50.2338 6.38207 44.8263V30.9063C6.38207 28.1113 6.07207 25.31 5.45957 22.5838L3.51332 13.9088C2.81082 10.7763 3.76582 7.57126 6.06957 5.33376C8.37207 3.09751 11.6046 2.23626 14.7158 3.03001L15.5083 3.23251L15.9521 3.37751C18.7446 4.28876 20.8883 6.63251 21.5471 9.49501C21.5933 9.69751 21.7733 9.83501 21.9733 9.83501C22.0058 9.83501 22.0383 9.83126 22.0721 9.82376C22.3071 9.77001 22.4546 9.53501 22.4008 9.29876C21.8833 7.05001 20.5346 5.09126 18.6883 3.78626C21.0858 4.01501 23.5208 3.83251 25.8558 3.23626L26.6621 3.03001C30.6696 2.00626 34.7683 3.73001 36.8608 7.31626C38.0171 9.29876 38.3733 11.6388 37.8633 13.9088L37.4233 15.8675C37.1046 15.8488 36.7858 15.8375 36.4633 15.8375C32.2983 15.8375 28.3821 17.46 25.4358 20.405C22.4908 23.35 20.8683 27.2663 20.8683 31.4325C20.8683 32.3338 20.9446 33.2225 21.0933 34.0925C20.2621 33.985 19.4158 34.2163 18.7358 34.7625ZM26.0583 41.8413C23.2783 39.0613 21.7471 35.3638 21.7471 31.4325C21.7471 27.5 23.2783 23.8038 26.0583 21.0238C28.8383 18.2438 32.5346 16.7125 36.4671 16.7125C40.3996 16.7125 44.0958 18.2438 46.8758 21.0238C49.6558 23.8038 51.1871 27.5 51.1871 31.4325C51.1871 35.3638 49.6558 39.0613 46.8758 41.8413C41.1358 47.58 31.7971 47.58 26.0583 41.8413ZM49.5533 42.84L52.1158 45.4025L50.4358 47.0825L47.8733 44.52L49.5533 42.84ZM62.3308 54.9775L60.0108 57.2975C59.9671 57.3413 59.9158 57.3475 59.8896 57.3475C59.8633 57.3475 59.8121 57.3413 59.7683 57.2975L57.2471 54.7763C58.6996 55.29 60.3633 55.0338 61.6058 54.01L62.3308 54.735C62.3971 54.8025 62.3971 54.9113 62.3308 54.9775Z"  style="fill:var(--color2, #424852)" />
  <path fill="#B1040E" d="M36.4658 18.125C29.1158 18.125 23.1571 24.0838 23.1571 31.4338C23.1571 38.7838 29.1158 44.7425 36.4658 44.7425C43.8158 44.7425 49.7746 38.7838 49.7746 31.4338C49.7746 24.0825 43.8158 18.125 36.4658 18.125ZM44.9333 33.2262C44.9333 33.7375 44.5196 34.1512 44.0083 34.1512H39.4246C39.2933 34.1512 39.1858 34.2575 39.1858 34.39V38.9738C39.1858 39.485 38.7721 39.8988 38.2608 39.8988H34.6733C34.1621 39.8988 33.7483 39.485 33.7483 38.9738V34.39C33.7483 34.2575 33.6408 34.1512 33.5096 34.1512H28.9258C28.4146 34.1512 28.0008 33.7375 28.0008 33.2262V29.6388C28.0008 29.1275 28.4146 28.7138 28.9258 28.7138H33.5096C33.6408 28.7138 33.7483 28.6075 33.7483 28.475V23.8913C33.7483 23.38 34.1621 22.9662 34.6733 22.9662H38.2608C38.7721 22.9662 39.1858 23.38 39.1858 23.8913V28.475C39.1858 28.6075 39.2933 28.7138 39.4246 28.7138H44.0083C44.5196 28.7138 44.9333 29.1275 44.9333 29.6388V33.2262Z" style="fill:var(--color1, #b1040e)" />
  <path fill="#D4E1E8" d="M14.7058 5.53749C13.0108 4.32124 10.7158 4.37249 9.07706 5.66124C6.25831 7.87749 4.96956 11.52 5.76956 15.0162L6.78456 19.4562C7.51706 22.6625 11.8558 23.2037 13.3533 20.275L16.6958 13.7387C18.1508 10.89 17.3058 7.40374 14.7058 5.53749Z"  style="fill:var(--color4, #d4e1e8)" />
    </symbol>
    <symbol id="icon-twitter" viewBox="0 0 32 32">
      <path d="M10.914 26.667c9.908 0 15.328-8.21 15.328-15.317.002-.231-.001-.462-.01-.692 1.055-.764 1.966-1.71 2.69-2.793-.986.434-2.031.72-3.1.85 1.127-.673 1.97-1.733 2.374-2.982-1.058.628-2.217 1.068-3.425 1.301-.812-.865-1.886-1.438-3.057-1.63s-2.372.007-3.418.566c-1.046.56-1.878 1.448-2.368 2.529s-.609 2.292-.34 3.448c-2.142-.107-4.238-.663-6.151-1.632s-3.601-2.33-4.954-3.994c-.687 1.187-.896 2.59-.586 3.925s1.117 2.503 2.256 3.265c-.854-.028-1.69-.257-2.438-.669v.074c.002 1.243.433 2.447 1.22 3.409s1.881 1.623 3.099 1.872c-.462.127-.94.191-1.419.189-.338.004-.676-.028-1.008-.093.344 1.07 1.014 2.006 1.916 2.676s1.992 1.041 3.116 1.06c-1.91 1.498-4.268 2.311-6.695 2.309-.428.003-.855-.021-1.28-.074 2.464 1.571 5.325 2.405 8.247 2.404z" />
    </symbol>
    <symbol id="icon-logo" viewBox="0 0 28 32">
      <path fill="#2e333e" d="M27.533 6.569C24.37 8.865 20.141 11.365 15.3 13.69c-4.519 2.18-8.909 3.895-12.621 4.999-.129-.349-.258-.698-.387-1.046C1.13 14.62.549 12.005.258 10.115-.032 8.081 0 6.889 0 6.889 0 3.082 3.421.001 7.65.001c2.518 0 4.745 1.104 6.133 2.79 1.388-1.686 3.615-2.79 6.133-2.79.484 0 .968.029 1.42.116h.032c2.195.378 3.002 2.819 1.42 4.272-3.196 2.936-8.166 6.51-15.848 10.347.29-.116 11.523-4.069 18.689-8.952.775-.523 1.872-.087 1.904.785z" style="fill:var(--color5, #2e333e)"/>
      <path fill="#b1040e" d="M27.759 8.08v.145c0 .814-.097 4.97-2.292 10.609-.742 1.889-1.259 3.837-1.678 5.784-.355 1.744-1.033 4.098-2.421 6.278-1.259 2.005-4.68 1.017-4.454-1.279l.484-4.534c.065-.581-.065-1.192-.355-1.715-.646-1.134-1.84-1.686-3.066-1.686s-2.421.552-3.066 1.686c-.258.436-.387.93-.387 1.424v.291l.484 4.534c.226 2.296-3.196 3.284-4.454 1.279-1.001-1.599-1.84-4.272-2.227-5.639-.129-.494.129-.988.678-1.192 10.297-3.72 18.528-10.899 18.786-11.132-6.907 4.04-13.202 6.714-17.656 8.342-1.323.494-2.808-.145-3.228-1.366v-.029c3.712-1.104 8.102-2.819 12.621-4.999 4.842-2.325 9.07-4.825 12.233-7.121v.32z" style="fill:var(--color1, #b1040e)"/>
    </symbol>
    <symbol id="icon-vector" viewBox="0 0 32 32">
      <path fill="#b1040e" d="M32 1.373V25.17c0 .364-.145.713-.402.971s-.607.402-.971.402-.713-.145-.971-.402-.402-.607-.402-.971V4.686L2.309 31.631c-.26.243-.604.375-.96.368s-.695-.15-.947-.402-.396-.591-.402-.947c-.006-.356.126-.7.368-.96L27.313 2.745H6.829c-.364 0-.713-.145-.971-.402s-.402-.607-.402-.971.145-.713.402-.971.607-.402.971-.402h23.797c.364 0 .713.145.971.402s.402.607.402.971z" style="fill:var(--color1, #b1040e)"/>
    </symbol>
    <symbol id="icon-youtube" viewBox="0 0 32 32">
      <path d="M16 5.333c1.14 0 2.309.029 3.443.077l1.339.064 1.281.076 1.2.081 1.096.085c1.189.091 2.309.599 3.161 1.433s1.383 1.943 1.498 3.131l.053.567.1 1.213c.093 1.257.163 2.628.163 3.939s-.069 2.681-.163 3.939l-.1 1.213c-.017.195-.035.383-.053.567-.115 1.187-.646 2.296-1.499 3.131s-1.972 1.342-3.161 1.433l-1.093.084-1.2.083-1.283.076-1.339.064c-1.147.05-2.295.076-3.443.077-1.148-.002-2.296-.027-3.443-.077l-1.339-.064-1.281-.076-1.2-.083-1.096-.084c-1.189-.091-2.309-.599-3.161-1.433s-1.383-1.943-1.498-3.131l-.053-.567-.1-1.213c-.102-1.311-.156-2.624-.163-3.939 0-1.311.069-2.681.163-3.939l.1-1.213c.017-.195.035-.383.053-.567.115-1.187.646-2.295 1.497-3.13s1.971-1.342 3.16-1.434l1.095-.085 1.2-.081 1.283-.076 1.339-.064c1.147-.05 2.296-.076 3.444-.077zm-2.667 7.434v6.467c0 .616.667 1 1.2.693l5.6-3.233c.122-.07.223-.171.293-.293s.107-.26.107-.4c0-.141-.037-.279-.107-.4s-.172-.223-.293-.293l-5.6-3.232c-.122-.07-.26-.107-.4-.107s-.278.037-.4.107-.223.171-.293.293-.107.26-.107.4v-.001z" />
    </symbol>
    <symbol id="icon-curve" viewBox="0 0 175 111" >
  <path d="M171.438 107.512C144.831 104.892 115.225 95.7251 99.1799 72.9474C95.116 67.1783 92.6223 60.2079 91.7676 53.0154M91.7676 53.0154C90.4662 42.0609 92.9666 30.5917 99.5115 22.0685C109.751 8.7333 125.809 -0.489917 142.626 5.90263C151.392 9.23463 157.576 15.9396 155.893 25.694C153.322 40.5963 133.927 50.1085 120.456 52.229C111.143 53.6953 101.467 53.9212 91.7676 53.0154ZM91.7676 53.0154C57.686 49.8326 23.3145 32.6748 3.37396 6.2404" stroke="#B1040E" stroke-width="6" stroke-linecap="round" 
  />
</symbol><symbol id="icon-beautiful" viewBox="0 0 905 594" >
  <path d="M4.04584 4C144.993 119.563 -6.78241 395.026 206.297 485C371.787 554.879 482.391 248.876 696.297 348C793.351 392.975 871.823 507.201 900.251 589.267" stroke="#B1040E" stroke-width="8" stroke-linecap="round" />
</symbol>
<symbol id="icon-close" viewBox="0 0 32 32" ><path d="M32 3.223 28.777 0 16 12.777 3.223 0 0 3.223 12.777 16 0 28.777 3.223 32 16 19.223 28.777 32 32 28.777 19.223 16 32 3.223z"/></symbol>
<symbol id="icon-menu" viewBox="0 0 24 16">
<path d="M0 2.66667V0H24V2.66667H0ZM0 9.33333H24V6.66667H0V9.33333ZM0 16H24V13.3333H0V16Z" fill="#212121" /></symbol>
  </defs>
</svg>